<svg width="336" height="336" viewBox="0 0 336 336" fill="none" xmlns="http://www.w3.org/2000/svg">
<mask id="mask0_4947_375939" style="mask-type:alpha" maskUnits="userSpaceOnUse" x="0" y="0" width="336" height="336">
<rect width="336" height="336" fill="url(#paint0_radial_4947_375939)"/>
</mask>
<g mask="url(#mask0_4947_375939)">
<g clip-path="url(#clip0_4947_375939)">
<g clip-path="url(#clip1_4947_375939)">
<line x1="0.5" x2="0.5" y2="336" stroke="currentColor"/>
<line x1="24.5" x2="24.5" y2="336" stroke="currentColor"/>
<line x1="48.5" x2="48.5" y2="336" stroke="currentColor"/>
<line x1="72.5" x2="72.5" y2="336" stroke="currentColor"/>
<line x1="96.5" x2="96.5" y2="336" stroke="currentColor"/>
<line x1="120.5" x2="120.5" y2="336" stroke="currentColor"/>
<line x1="144.5" x2="144.5" y2="336" stroke="currentColor"/>
<line x1="168.5" x2="168.5" y2="336" stroke="currentColor"/>
<line x1="192.5" x2="192.5" y2="336" stroke="currentColor"/>
<line x1="216.5" x2="216.5" y2="336" stroke="currentColor"/>
<line x1="240.5" x2="240.5" y2="336" stroke="currentColor"/>
<line x1="264.5" x2="264.5" y2="336" stroke="currentColor"/>
<line x1="288.5" x2="288.5" y2="336" stroke="currentColor"/>
<line x1="312.5" x2="312.5" y2="336" stroke="currentColor"/>
</g>
<rect x="0.5" y="0.5" width="335" height="335" stroke="currentColor"/>
<g clip-path="url(#clip2_4947_375939)">
<line y1="23.5" x2="336" y2="23.5" stroke="currentColor"/>
<line y1="47.5" x2="336" y2="47.5" stroke="currentColor"/>
<line y1="71.5" x2="336" y2="71.5" stroke="currentColor"/>
<line y1="95.5" x2="336" y2="95.5" stroke="currentColor"/>
<line y1="119.5" x2="336" y2="119.5" stroke="currentColor"/>
<line y1="143.5" x2="336" y2="143.5" stroke="currentColor"/>
<line y1="167.5" x2="336" y2="167.5" stroke="currentColor"/>
<line y1="191.5" x2="336" y2="191.5" stroke="currentColor"/>
<line y1="215.5" x2="336" y2="215.5" stroke="currentColor"/>
<line y1="239.5" x2="336" y2="239.5" stroke="currentColor"/>
<line y1="263.5" x2="336" y2="263.5" stroke="currentColor"/>
<line y1="287.5" x2="336" y2="287.5" stroke="currentColor"/>
<line y1="311.5" x2="336" y2="311.5" stroke="currentColor"/>
<line y1="335.5" x2="336" y2="335.5" stroke="currentColor"/>
</g>
<rect x="0.5" y="0.5" width="335" height="335" stroke="currentColor"/>
</g>
</g>
<defs>
<radialGradient id="paint0_radial_4947_375939" cx="0" cy="0" r="1" gradientUnits="userSpaceOnUse" gradientTransform="translate(168 168) rotate(90) scale(168 168)">
<stop/>
<stop offset="1" stop-opacity="0"/>
</radialGradient>
<clipPath id="clip0_4947_375939">
<rect width="336" height="336" fill="white"/>
</clipPath>
<clipPath id="clip1_4947_375939">
<rect width="336" height="336" fill="white"/>
</clipPath>
<clipPath id="clip2_4947_375939">
<rect width="336" height="336" fill="white"/>
</clipPath>
</defs>
</svg>
