<svg width="336" height="336" viewBox="0 0 336 336" fill="none" xmlns="http://www.w3.org/2000/svg">
<mask id="mask0_8353_93479" style="mask-type:alpha" maskUnits="userSpaceOnUse" x="0" y="0" width="336" height="336">
<rect width="336" height="336" fill="url(#paint0_radial_8353_93479)"/>
</mask>
<g mask="url(#mask0_8353_93479)">
<circle opacity="0.4" cx="6.25" cy="-0.25" r="0.75" fill="white"/>
<circle opacity="0.4" cx="19.75" cy="-0.25" r="0.75" fill="white"/>
<circle opacity="0.4" cx="33.25" cy="-0.25" r="0.75" fill="white"/>
<circle opacity="0.4" cx="46.75" cy="-0.25" r="0.75" fill="white"/>
<circle opacity="0.4" cx="60.25" cy="-0.25" r="0.75" fill="white"/>
<circle opacity="0.4" cx="73.75" cy="-0.25" r="0.75" fill="white"/>
<circle opacity="0.4" cx="87.25" cy="-0.25" r="0.75" fill="white"/>
<circle opacity="0.4" cx="100.75" cy="-0.25" r="0.75" fill="white"/>
<circle opacity="0.4" cx="114.25" cy="-0.25" r="0.75" fill="white"/>
<circle opacity="0.4" cx="127.75" cy="-0.25" r="0.75" fill="white"/>
<circle opacity="0.4" cx="141.25" cy="-0.25" r="0.75" fill="white"/>
<circle opacity="0.4" cx="154.75" cy="-0.25" r="0.75" fill="white"/>
<circle opacity="0.4" cx="168.25" cy="-0.25" r="0.75" fill="white"/>
<circle opacity="0.4" cx="181.75" cy="-0.25" r="0.75" fill="white"/>
<circle opacity="0.4" cx="195.25" cy="-0.25" r="0.75" fill="white"/>
<circle opacity="0.4" cx="208.75" cy="-0.25" r="0.75" fill="white"/>
<circle opacity="0.4" cx="222.25" cy="-0.25" r="0.75" fill="white"/>
<circle opacity="0.4" cx="235.75" cy="-0.25" r="0.75" fill="white"/>
<circle opacity="0.4" cx="249.25" cy="-0.25" r="0.75" fill="white"/>
<circle opacity="0.4" cx="262.75" cy="-0.25" r="0.75" fill="white"/>
<circle opacity="0.4" cx="276.25" cy="-0.25" r="0.75" fill="white"/>
<circle opacity="0.4" cx="289.75" cy="-0.25" r="0.75" fill="white"/>
<circle opacity="0.4" cx="303.25" cy="-0.25" r="0.75" fill="white"/>
<circle opacity="0.4" cx="316.75" cy="-0.25" r="0.75" fill="white"/>
<circle opacity="0.4" cx="330.25" cy="-0.25" r="0.75" fill="white"/>
<circle opacity="0.4" cx="6.25" cy="13.25" r="0.75" fill="white"/>
<circle opacity="0.4" cx="19.75" cy="13.25" r="0.75" fill="white"/>
<circle opacity="0.4" cx="33.25" cy="13.25" r="0.75" fill="white"/>
<circle opacity="0.4" cx="46.75" cy="13.25" r="0.75" fill="white"/>
<circle opacity="0.4" cx="60.25" cy="13.25" r="0.75" fill="white"/>
<circle opacity="0.4" cx="73.75" cy="13.25" r="0.75" fill="white"/>
<circle opacity="0.4" cx="87.25" cy="13.25" r="0.75" fill="white"/>
<circle opacity="0.4" cx="100.75" cy="13.25" r="0.75" fill="white"/>
<circle opacity="0.4" cx="114.25" cy="13.25" r="0.75" fill="white"/>
<circle opacity="0.4" cx="127.75" cy="13.25" r="0.75" fill="white"/>
<circle opacity="0.4" cx="141.25" cy="13.25" r="0.75" fill="white"/>
<circle opacity="0.4" cx="154.75" cy="13.25" r="0.75" fill="white"/>
<circle opacity="0.4" cx="168.25" cy="13.25" r="0.75" fill="white"/>
<circle opacity="0.4" cx="181.75" cy="13.25" r="0.75" fill="white"/>
<circle opacity="0.4" cx="195.25" cy="13.25" r="0.75" fill="white"/>
<circle opacity="0.4" cx="208.75" cy="13.25" r="0.75" fill="white"/>
<circle opacity="0.4" cx="222.25" cy="13.25" r="0.75" fill="white"/>
<circle opacity="0.4" cx="235.75" cy="13.25" r="0.75" fill="white"/>
<circle opacity="0.4" cx="249.25" cy="13.25" r="0.75" fill="white"/>
<circle opacity="0.4" cx="262.75" cy="13.25" r="0.75" fill="white"/>
<circle opacity="0.4" cx="276.25" cy="13.25" r="0.75" fill="white"/>
<circle opacity="0.4" cx="289.75" cy="13.25" r="0.75" fill="white"/>
<circle opacity="0.4" cx="303.25" cy="13.25" r="0.75" fill="white"/>
<circle opacity="0.4" cx="316.75" cy="13.25" r="0.75" fill="white"/>
<circle opacity="0.4" cx="330.25" cy="13.25" r="0.75" fill="white"/>
<circle opacity="0.4" cx="6.25" cy="26.75" r="0.75" fill="white"/>
<circle opacity="0.4" cx="19.75" cy="26.75" r="0.75" fill="white"/>
<circle opacity="0.4" cx="33.25" cy="26.75" r="0.75" fill="white"/>
<circle opacity="0.4" cx="46.75" cy="26.75" r="0.75" fill="white"/>
<circle opacity="0.4" cx="60.25" cy="26.75" r="0.75" fill="white"/>
<circle opacity="0.4" cx="73.75" cy="26.75" r="0.75" fill="white"/>
<circle opacity="0.4" cx="87.25" cy="26.75" r="0.75" fill="white"/>
<circle opacity="0.4" cx="100.75" cy="26.75" r="0.75" fill="white"/>
<circle opacity="0.4" cx="114.25" cy="26.75" r="0.75" fill="white"/>
<circle opacity="0.4" cx="127.75" cy="26.75" r="0.75" fill="white"/>
<circle opacity="0.4" cx="141.25" cy="26.75" r="0.75" fill="white"/>
<circle opacity="0.4" cx="154.75" cy="26.75" r="0.75" fill="white"/>
<circle opacity="0.4" cx="168.25" cy="26.75" r="0.75" fill="white"/>
<circle opacity="0.4" cx="181.75" cy="26.75" r="0.75" fill="white"/>
<circle opacity="0.4" cx="195.25" cy="26.75" r="0.75" fill="white"/>
<circle opacity="0.4" cx="208.75" cy="26.75" r="0.75" fill="white"/>
<circle opacity="0.4" cx="222.25" cy="26.75" r="0.75" fill="white"/>
<circle opacity="0.4" cx="235.75" cy="26.75" r="0.75" fill="white"/>
<circle opacity="0.4" cx="249.25" cy="26.75" r="0.75" fill="white"/>
<circle opacity="0.4" cx="262.75" cy="26.75" r="0.75" fill="white"/>
<circle opacity="0.4" cx="276.25" cy="26.75" r="0.75" fill="white"/>
<circle opacity="0.4" cx="289.75" cy="26.75" r="0.75" fill="white"/>
<circle opacity="0.4" cx="303.25" cy="26.75" r="0.75" fill="white"/>
<circle opacity="0.4" cx="316.75" cy="26.75" r="0.75" fill="white"/>
<circle opacity="0.4" cx="330.25" cy="26.75" r="0.75" fill="white"/>
<circle opacity="0.4" cx="6.25" cy="40.25" r="0.75" fill="white"/>
<circle opacity="0.4" cx="19.75" cy="40.25" r="0.75" fill="white"/>
<circle opacity="0.4" cx="33.25" cy="40.25" r="0.75" fill="white"/>
<circle opacity="0.4" cx="46.75" cy="40.25" r="0.75" fill="white"/>
<circle opacity="0.4" cx="60.25" cy="40.25" r="0.75" fill="white"/>
<circle opacity="0.4" cx="73.75" cy="40.25" r="0.75" fill="white"/>
<circle opacity="0.4" cx="87.25" cy="40.25" r="0.75" fill="white"/>
<circle opacity="0.4" cx="100.75" cy="40.25" r="0.75" fill="white"/>
<circle opacity="0.4" cx="114.25" cy="40.25" r="0.75" fill="white"/>
<circle opacity="0.4" cx="127.75" cy="40.25" r="0.75" fill="white"/>
<circle opacity="0.4" cx="141.25" cy="40.25" r="0.75" fill="white"/>
<circle opacity="0.4" cx="154.75" cy="40.25" r="0.75" fill="white"/>
<circle opacity="0.4" cx="168.25" cy="40.25" r="0.75" fill="white"/>
<circle opacity="0.4" cx="181.75" cy="40.25" r="0.75" fill="white"/>
<circle opacity="0.4" cx="195.25" cy="40.25" r="0.75" fill="white"/>
<circle opacity="0.4" cx="208.75" cy="40.25" r="0.75" fill="white"/>
<circle opacity="0.4" cx="222.25" cy="40.25" r="0.75" fill="white"/>
<circle opacity="0.4" cx="235.75" cy="40.25" r="0.75" fill="white"/>
<circle opacity="0.4" cx="249.25" cy="40.25" r="0.75" fill="white"/>
<circle opacity="0.4" cx="262.75" cy="40.25" r="0.75" fill="white"/>
<circle opacity="0.4" cx="276.25" cy="40.25" r="0.75" fill="white"/>
<circle opacity="0.4" cx="289.75" cy="40.25" r="0.75" fill="white"/>
<circle opacity="0.4" cx="303.25" cy="40.25" r="0.75" fill="white"/>
<circle opacity="0.4" cx="316.75" cy="40.25" r="0.75" fill="white"/>
<circle opacity="0.4" cx="330.25" cy="40.25" r="0.75" fill="white"/>
<circle opacity="0.4" cx="6.25" cy="53.75" r="0.75" fill="white"/>
<circle opacity="0.4" cx="19.75" cy="53.75" r="0.75" fill="white"/>
<circle opacity="0.4" cx="33.25" cy="53.75" r="0.75" fill="white"/>
<circle opacity="0.4" cx="46.75" cy="53.75" r="0.75" fill="white"/>
<circle opacity="0.4" cx="60.25" cy="53.75" r="0.75" fill="white"/>
<circle opacity="0.4" cx="73.75" cy="53.75" r="0.75" fill="white"/>
<circle opacity="0.4" cx="87.25" cy="53.75" r="0.75" fill="white"/>
<circle opacity="0.4" cx="100.75" cy="53.75" r="0.75" fill="white"/>
<circle opacity="0.4" cx="114.25" cy="53.75" r="0.75" fill="white"/>
<circle opacity="0.4" cx="127.75" cy="53.75" r="0.75" fill="white"/>
<circle opacity="0.4" cx="141.25" cy="53.75" r="0.75" fill="white"/>
<circle opacity="0.4" cx="154.75" cy="53.75" r="0.75" fill="white"/>
<circle opacity="0.4" cx="168.25" cy="53.75" r="0.75" fill="white"/>
<circle opacity="0.4" cx="181.75" cy="53.75" r="0.75" fill="white"/>
<circle opacity="0.4" cx="195.25" cy="53.75" r="0.75" fill="white"/>
<circle opacity="0.4" cx="208.75" cy="53.75" r="0.75" fill="white"/>
<circle opacity="0.4" cx="222.25" cy="53.75" r="0.75" fill="white"/>
<circle opacity="0.4" cx="235.75" cy="53.75" r="0.75" fill="white"/>
<circle opacity="0.4" cx="249.25" cy="53.75" r="0.75" fill="white"/>
<circle opacity="0.4" cx="262.75" cy="53.75" r="0.75" fill="white"/>
<circle opacity="0.4" cx="276.25" cy="53.75" r="0.75" fill="white"/>
<circle opacity="0.4" cx="289.75" cy="53.75" r="0.75" fill="white"/>
<circle opacity="0.4" cx="303.25" cy="53.75" r="0.75" fill="white"/>
<circle opacity="0.4" cx="316.75" cy="53.75" r="0.75" fill="white"/>
<circle opacity="0.4" cx="330.25" cy="53.75" r="0.75" fill="white"/>
<circle opacity="0.4" cx="6.25" cy="67.25" r="0.75" fill="white"/>
<circle opacity="0.4" cx="19.75" cy="67.25" r="0.75" fill="white"/>
<circle opacity="0.4" cx="33.25" cy="67.25" r="0.75" fill="white"/>
<circle opacity="0.4" cx="46.75" cy="67.25" r="0.75" fill="white"/>
<circle opacity="0.4" cx="60.25" cy="67.25" r="0.75" fill="white"/>
<circle opacity="0.4" cx="73.75" cy="67.25" r="0.75" fill="white"/>
<circle opacity="0.4" cx="87.25" cy="67.25" r="0.75" fill="white"/>
<circle opacity="0.4" cx="100.75" cy="67.25" r="0.75" fill="white"/>
<circle opacity="0.4" cx="114.25" cy="67.25" r="0.75" fill="white"/>
<circle opacity="0.4" cx="127.75" cy="67.25" r="0.75" fill="white"/>
<circle opacity="0.4" cx="141.25" cy="67.25" r="0.75" fill="white"/>
<circle opacity="0.4" cx="154.75" cy="67.25" r="0.75" fill="white"/>
<circle opacity="0.4" cx="168.25" cy="67.25" r="0.75" fill="white"/>
<circle opacity="0.4" cx="181.75" cy="67.25" r="0.75" fill="white"/>
<circle opacity="0.4" cx="195.25" cy="67.25" r="0.75" fill="white"/>
<circle opacity="0.4" cx="208.75" cy="67.25" r="0.75" fill="white"/>
<circle opacity="0.4" cx="222.25" cy="67.25" r="0.75" fill="white"/>
<circle opacity="0.4" cx="235.75" cy="67.25" r="0.75" fill="white"/>
<circle opacity="0.4" cx="249.25" cy="67.25" r="0.75" fill="white"/>
<circle opacity="0.4" cx="262.75" cy="67.25" r="0.75" fill="white"/>
<circle opacity="0.4" cx="276.25" cy="67.25" r="0.75" fill="white"/>
<circle opacity="0.4" cx="289.75" cy="67.25" r="0.75" fill="white"/>
<circle opacity="0.4" cx="303.25" cy="67.25" r="0.75" fill="white"/>
<circle opacity="0.4" cx="316.75" cy="67.25" r="0.75" fill="white"/>
<circle opacity="0.4" cx="330.25" cy="67.25" r="0.75" fill="white"/>
<circle opacity="0.4" cx="6.25" cy="80.75" r="0.75" fill="white"/>
<circle opacity="0.4" cx="19.75" cy="80.75" r="0.75" fill="white"/>
<circle opacity="0.4" cx="33.25" cy="80.75" r="0.75" fill="white"/>
<circle opacity="0.4" cx="46.75" cy="80.75" r="0.75" fill="white"/>
<circle opacity="0.4" cx="60.25" cy="80.75" r="0.75" fill="white"/>
<circle opacity="0.4" cx="73.75" cy="80.75" r="0.75" fill="white"/>
<circle opacity="0.4" cx="87.25" cy="80.75" r="0.75" fill="white"/>
<circle opacity="0.4" cx="100.75" cy="80.75" r="0.75" fill="white"/>
<circle opacity="0.4" cx="114.25" cy="80.75" r="0.75" fill="white"/>
<circle opacity="0.4" cx="127.75" cy="80.75" r="0.75" fill="white"/>
<circle opacity="0.4" cx="141.25" cy="80.75" r="0.75" fill="white"/>
<circle opacity="0.4" cx="154.75" cy="80.75" r="0.75" fill="white"/>
<circle opacity="0.4" cx="168.25" cy="80.75" r="0.75" fill="white"/>
<circle opacity="0.4" cx="181.75" cy="80.75" r="0.75" fill="white"/>
<circle opacity="0.4" cx="195.25" cy="80.75" r="0.75" fill="white"/>
<circle opacity="0.4" cx="208.75" cy="80.75" r="0.75" fill="white"/>
<circle opacity="0.4" cx="222.25" cy="80.75" r="0.75" fill="white"/>
<circle opacity="0.4" cx="235.75" cy="80.75" r="0.75" fill="white"/>
<circle opacity="0.4" cx="249.25" cy="80.75" r="0.75" fill="white"/>
<circle opacity="0.4" cx="262.75" cy="80.75" r="0.75" fill="white"/>
<circle opacity="0.4" cx="276.25" cy="80.75" r="0.75" fill="white"/>
<circle opacity="0.4" cx="289.75" cy="80.75" r="0.75" fill="white"/>
<circle opacity="0.4" cx="303.25" cy="80.75" r="0.75" fill="white"/>
<circle opacity="0.4" cx="316.75" cy="80.75" r="0.75" fill="white"/>
<circle opacity="0.4" cx="330.25" cy="80.75" r="0.75" fill="white"/>
<circle opacity="0.4" cx="6.25" cy="94.25" r="0.75" fill="white"/>
<circle opacity="0.4" cx="19.75" cy="94.25" r="0.75" fill="white"/>
<circle opacity="0.4" cx="33.25" cy="94.25" r="0.75" fill="white"/>
<circle opacity="0.4" cx="46.75" cy="94.25" r="0.75" fill="white"/>
<circle opacity="0.4" cx="60.25" cy="94.25" r="0.75" fill="white"/>
<circle opacity="0.4" cx="73.75" cy="94.25" r="0.75" fill="white"/>
<circle opacity="0.4" cx="87.25" cy="94.25" r="0.75" fill="white"/>
<circle opacity="0.4" cx="100.75" cy="94.25" r="0.75" fill="white"/>
<circle opacity="0.4" cx="114.25" cy="94.25" r="0.75" fill="white"/>
<circle opacity="0.4" cx="127.75" cy="94.25" r="0.75" fill="white"/>
<circle opacity="0.4" cx="141.25" cy="94.25" r="0.75" fill="white"/>
<circle opacity="0.4" cx="154.75" cy="94.25" r="0.75" fill="white"/>
<circle opacity="0.4" cx="168.25" cy="94.25" r="0.75" fill="white"/>
<circle opacity="0.4" cx="181.75" cy="94.25" r="0.75" fill="white"/>
<circle opacity="0.4" cx="195.25" cy="94.25" r="0.75" fill="white"/>
<circle opacity="0.4" cx="208.75" cy="94.25" r="0.75" fill="white"/>
<circle opacity="0.4" cx="222.25" cy="94.25" r="0.75" fill="white"/>
<circle opacity="0.4" cx="235.75" cy="94.25" r="0.75" fill="white"/>
<circle opacity="0.4" cx="249.25" cy="94.25" r="0.75" fill="white"/>
<circle opacity="0.4" cx="262.75" cy="94.25" r="0.75" fill="white"/>
<circle opacity="0.4" cx="276.25" cy="94.25" r="0.75" fill="white"/>
<circle opacity="0.4" cx="289.75" cy="94.25" r="0.75" fill="white"/>
<circle opacity="0.4" cx="303.25" cy="94.25" r="0.75" fill="white"/>
<circle opacity="0.4" cx="316.75" cy="94.25" r="0.75" fill="white"/>
<circle opacity="0.4" cx="330.25" cy="94.25" r="0.75" fill="white"/>
<circle opacity="0.4" cx="6.25" cy="107.75" r="0.75" fill="white"/>
<circle opacity="0.4" cx="19.75" cy="107.75" r="0.75" fill="white"/>
<circle opacity="0.4" cx="33.25" cy="107.75" r="0.75" fill="white"/>
<circle opacity="0.4" cx="46.75" cy="107.75" r="0.75" fill="white"/>
<circle opacity="0.4" cx="60.25" cy="107.75" r="0.75" fill="white"/>
<circle opacity="0.4" cx="73.75" cy="107.75" r="0.75" fill="white"/>
<circle opacity="0.4" cx="87.25" cy="107.75" r="0.75" fill="white"/>
<circle opacity="0.4" cx="100.75" cy="107.75" r="0.75" fill="white"/>
<circle opacity="0.4" cx="114.25" cy="107.75" r="0.75" fill="white"/>
<circle opacity="0.4" cx="127.75" cy="107.75" r="0.75" fill="white"/>
<circle opacity="0.4" cx="141.25" cy="107.75" r="0.75" fill="white"/>
<circle opacity="0.4" cx="154.75" cy="107.75" r="0.75" fill="white"/>
<circle opacity="0.4" cx="168.25" cy="107.75" r="0.75" fill="white"/>
<circle opacity="0.4" cx="181.75" cy="107.75" r="0.75" fill="white"/>
<circle opacity="0.4" cx="195.25" cy="107.75" r="0.75" fill="white"/>
<circle opacity="0.4" cx="208.75" cy="107.75" r="0.75" fill="white"/>
<circle opacity="0.4" cx="222.25" cy="107.75" r="0.75" fill="white"/>
<circle opacity="0.4" cx="235.75" cy="107.75" r="0.75" fill="white"/>
<circle opacity="0.4" cx="249.25" cy="107.75" r="0.75" fill="white"/>
<circle opacity="0.4" cx="262.75" cy="107.75" r="0.75" fill="white"/>
<circle opacity="0.4" cx="276.25" cy="107.75" r="0.75" fill="white"/>
<circle opacity="0.4" cx="289.75" cy="107.75" r="0.75" fill="white"/>
<circle opacity="0.4" cx="303.25" cy="107.75" r="0.75" fill="white"/>
<circle opacity="0.4" cx="316.75" cy="107.75" r="0.75" fill="white"/>
<circle opacity="0.4" cx="330.25" cy="107.75" r="0.75" fill="white"/>
<circle opacity="0.4" cx="6.25" cy="121.25" r="0.75" fill="white"/>
<circle opacity="0.4" cx="19.75" cy="121.25" r="0.75" fill="white"/>
<circle opacity="0.4" cx="33.25" cy="121.25" r="0.75" fill="white"/>
<circle opacity="0.4" cx="46.75" cy="121.25" r="0.75" fill="white"/>
<circle opacity="0.4" cx="60.25" cy="121.25" r="0.75" fill="white"/>
<circle opacity="0.4" cx="73.75" cy="121.25" r="0.75" fill="white"/>
<circle opacity="0.4" cx="87.25" cy="121.25" r="0.75" fill="white"/>
<circle opacity="0.4" cx="100.75" cy="121.25" r="0.75" fill="white"/>
<circle opacity="0.4" cx="114.25" cy="121.25" r="0.75" fill="white"/>
<circle opacity="0.4" cx="127.75" cy="121.25" r="0.75" fill="white"/>
<circle opacity="0.4" cx="141.25" cy="121.25" r="0.75" fill="white"/>
<circle opacity="0.4" cx="154.75" cy="121.25" r="0.75" fill="white"/>
<circle opacity="0.4" cx="168.25" cy="121.25" r="0.75" fill="white"/>
<circle opacity="0.4" cx="181.75" cy="121.25" r="0.75" fill="white"/>
<circle opacity="0.4" cx="195.25" cy="121.25" r="0.75" fill="white"/>
<circle opacity="0.4" cx="208.75" cy="121.25" r="0.75" fill="white"/>
<circle opacity="0.4" cx="222.25" cy="121.25" r="0.75" fill="white"/>
<circle opacity="0.4" cx="235.75" cy="121.25" r="0.75" fill="white"/>
<circle opacity="0.4" cx="249.25" cy="121.25" r="0.75" fill="white"/>
<circle opacity="0.4" cx="262.75" cy="121.25" r="0.75" fill="white"/>
<circle opacity="0.4" cx="276.25" cy="121.25" r="0.75" fill="white"/>
<circle opacity="0.4" cx="289.75" cy="121.25" r="0.75" fill="white"/>
<circle opacity="0.4" cx="303.25" cy="121.25" r="0.75" fill="white"/>
<circle opacity="0.4" cx="316.75" cy="121.25" r="0.75" fill="white"/>
<circle opacity="0.4" cx="330.25" cy="121.25" r="0.75" fill="white"/>
<circle opacity="0.4" cx="6.25" cy="134.75" r="0.75" fill="white"/>
<circle opacity="0.4" cx="19.75" cy="134.75" r="0.75" fill="white"/>
<circle opacity="0.4" cx="33.25" cy="134.75" r="0.75" fill="white"/>
<circle opacity="0.4" cx="46.75" cy="134.75" r="0.75" fill="white"/>
<circle opacity="0.4" cx="60.25" cy="134.75" r="0.75" fill="white"/>
<circle opacity="0.4" cx="73.75" cy="134.75" r="0.75" fill="white"/>
<circle opacity="0.4" cx="87.25" cy="134.75" r="0.75" fill="white"/>
<circle opacity="0.4" cx="100.75" cy="134.75" r="0.75" fill="white"/>
<circle opacity="0.4" cx="114.25" cy="134.75" r="0.75" fill="white"/>
<circle opacity="0.4" cx="127.75" cy="134.75" r="0.75" fill="white"/>
<circle opacity="0.4" cx="141.25" cy="134.75" r="0.75" fill="white"/>
<circle opacity="0.4" cx="154.75" cy="134.75" r="0.75" fill="white"/>
<circle opacity="0.4" cx="168.25" cy="134.75" r="0.75" fill="white"/>
<circle opacity="0.4" cx="181.75" cy="134.75" r="0.75" fill="white"/>
<circle opacity="0.4" cx="195.25" cy="134.75" r="0.75" fill="white"/>
<circle opacity="0.4" cx="208.75" cy="134.75" r="0.75" fill="white"/>
<circle opacity="0.4" cx="222.25" cy="134.75" r="0.75" fill="white"/>
<circle opacity="0.4" cx="235.75" cy="134.75" r="0.75" fill="white"/>
<circle opacity="0.4" cx="249.25" cy="134.75" r="0.75" fill="white"/>
<circle opacity="0.4" cx="262.75" cy="134.75" r="0.75" fill="white"/>
<circle opacity="0.4" cx="276.25" cy="134.75" r="0.75" fill="white"/>
<circle opacity="0.4" cx="289.75" cy="134.75" r="0.75" fill="white"/>
<circle opacity="0.4" cx="303.25" cy="134.75" r="0.75" fill="white"/>
<circle opacity="0.4" cx="316.75" cy="134.75" r="0.75" fill="white"/>
<circle opacity="0.4" cx="330.25" cy="134.75" r="0.75" fill="white"/>
<circle opacity="0.4" cx="6.25" cy="148.25" r="0.75" fill="white"/>
<circle opacity="0.4" cx="19.75" cy="148.25" r="0.75" fill="white"/>
<circle opacity="0.4" cx="33.25" cy="148.25" r="0.75" fill="white"/>
<circle opacity="0.4" cx="46.75" cy="148.25" r="0.75" fill="white"/>
<circle opacity="0.4" cx="60.25" cy="148.25" r="0.75" fill="white"/>
<circle opacity="0.4" cx="73.75" cy="148.25" r="0.75" fill="white"/>
<circle opacity="0.4" cx="87.25" cy="148.25" r="0.75" fill="white"/>
<circle opacity="0.4" cx="100.75" cy="148.25" r="0.75" fill="white"/>
<circle opacity="0.4" cx="114.25" cy="148.25" r="0.75" fill="white"/>
<circle opacity="0.4" cx="127.75" cy="148.25" r="0.75" fill="white"/>
<circle opacity="0.4" cx="141.25" cy="148.25" r="0.75" fill="white"/>
<circle opacity="0.4" cx="154.75" cy="148.25" r="0.75" fill="white"/>
<circle opacity="0.4" cx="168.25" cy="148.25" r="0.75" fill="white"/>
<circle opacity="0.4" cx="181.75" cy="148.25" r="0.75" fill="white"/>
<circle opacity="0.4" cx="195.25" cy="148.25" r="0.75" fill="white"/>
<circle opacity="0.4" cx="208.75" cy="148.25" r="0.75" fill="white"/>
<circle opacity="0.4" cx="222.25" cy="148.25" r="0.75" fill="white"/>
<circle opacity="0.4" cx="235.75" cy="148.25" r="0.75" fill="white"/>
<circle opacity="0.4" cx="249.25" cy="148.25" r="0.75" fill="white"/>
<circle opacity="0.4" cx="262.75" cy="148.25" r="0.75" fill="white"/>
<circle opacity="0.4" cx="276.25" cy="148.25" r="0.75" fill="white"/>
<circle opacity="0.4" cx="289.75" cy="148.25" r="0.75" fill="white"/>
<circle opacity="0.4" cx="303.25" cy="148.25" r="0.75" fill="white"/>
<circle opacity="0.4" cx="316.75" cy="148.25" r="0.75" fill="white"/>
<circle opacity="0.4" cx="330.25" cy="148.25" r="0.75" fill="white"/>
<circle opacity="0.4" cx="6.25" cy="161.75" r="0.75" fill="white"/>
<circle opacity="0.4" cx="19.75" cy="161.75" r="0.75" fill="white"/>
<circle opacity="0.4" cx="33.25" cy="161.75" r="0.75" fill="white"/>
<circle opacity="0.4" cx="46.75" cy="161.75" r="0.75" fill="white"/>
<circle opacity="0.4" cx="60.25" cy="161.75" r="0.75" fill="white"/>
<circle opacity="0.4" cx="73.75" cy="161.75" r="0.75" fill="white"/>
<circle opacity="0.4" cx="87.25" cy="161.75" r="0.75" fill="white"/>
<circle opacity="0.4" cx="100.75" cy="161.75" r="0.75" fill="white"/>
<circle opacity="0.4" cx="114.25" cy="161.75" r="0.75" fill="white"/>
<circle opacity="0.4" cx="127.75" cy="161.75" r="0.75" fill="white"/>
<circle opacity="0.4" cx="141.25" cy="161.75" r="0.75" fill="white"/>
<circle opacity="0.4" cx="154.75" cy="161.75" r="0.75" fill="white"/>
<circle opacity="0.4" cx="168.25" cy="161.75" r="0.75" fill="white"/>
<circle opacity="0.4" cx="181.75" cy="161.75" r="0.75" fill="white"/>
<circle opacity="0.4" cx="195.25" cy="161.75" r="0.75" fill="white"/>
<circle opacity="0.4" cx="208.75" cy="161.75" r="0.75" fill="white"/>
<circle opacity="0.4" cx="222.25" cy="161.75" r="0.75" fill="white"/>
<circle opacity="0.4" cx="235.75" cy="161.75" r="0.75" fill="white"/>
<circle opacity="0.4" cx="249.25" cy="161.75" r="0.75" fill="white"/>
<circle opacity="0.4" cx="262.75" cy="161.75" r="0.75" fill="white"/>
<circle opacity="0.4" cx="276.25" cy="161.75" r="0.75" fill="white"/>
<circle opacity="0.4" cx="289.75" cy="161.75" r="0.75" fill="white"/>
<circle opacity="0.4" cx="303.25" cy="161.75" r="0.75" fill="white"/>
<circle opacity="0.4" cx="316.75" cy="161.75" r="0.75" fill="white"/>
<circle opacity="0.4" cx="330.25" cy="161.75" r="0.75" fill="white"/>
<circle opacity="0.4" cx="6.25" cy="175.25" r="0.75" fill="white"/>
<circle opacity="0.4" cx="19.75" cy="175.25" r="0.75" fill="white"/>
<circle opacity="0.4" cx="33.25" cy="175.25" r="0.75" fill="white"/>
<circle opacity="0.4" cx="46.75" cy="175.25" r="0.75" fill="white"/>
<circle opacity="0.4" cx="60.25" cy="175.25" r="0.75" fill="white"/>
<circle opacity="0.4" cx="73.75" cy="175.25" r="0.75" fill="white"/>
<circle opacity="0.4" cx="87.25" cy="175.25" r="0.75" fill="white"/>
<circle opacity="0.4" cx="100.75" cy="175.25" r="0.75" fill="white"/>
<circle opacity="0.4" cx="114.25" cy="175.25" r="0.75" fill="white"/>
<circle opacity="0.4" cx="127.75" cy="175.25" r="0.75" fill="white"/>
<circle opacity="0.4" cx="141.25" cy="175.25" r="0.75" fill="white"/>
<circle opacity="0.4" cx="154.75" cy="175.25" r="0.75" fill="white"/>
<circle opacity="0.4" cx="168.25" cy="175.25" r="0.75" fill="white"/>
<circle opacity="0.4" cx="181.75" cy="175.25" r="0.75" fill="white"/>
<circle opacity="0.4" cx="195.25" cy="175.25" r="0.75" fill="white"/>
<circle opacity="0.4" cx="208.75" cy="175.25" r="0.75" fill="white"/>
<circle opacity="0.4" cx="222.25" cy="175.25" r="0.75" fill="white"/>
<circle opacity="0.4" cx="235.75" cy="175.25" r="0.75" fill="white"/>
<circle opacity="0.4" cx="249.25" cy="175.25" r="0.75" fill="white"/>
<circle opacity="0.4" cx="262.75" cy="175.25" r="0.75" fill="white"/>
<circle opacity="0.4" cx="276.25" cy="175.25" r="0.75" fill="white"/>
<circle opacity="0.4" cx="289.75" cy="175.25" r="0.75" fill="white"/>
<circle opacity="0.4" cx="303.25" cy="175.25" r="0.75" fill="white"/>
<circle opacity="0.4" cx="316.75" cy="175.25" r="0.75" fill="white"/>
<circle opacity="0.4" cx="330.25" cy="175.25" r="0.75" fill="white"/>
<circle opacity="0.4" cx="6.25" cy="188.75" r="0.75" fill="white"/>
<circle opacity="0.4" cx="19.75" cy="188.75" r="0.75" fill="white"/>
<circle opacity="0.4" cx="33.25" cy="188.75" r="0.75" fill="white"/>
<circle opacity="0.4" cx="46.75" cy="188.75" r="0.75" fill="white"/>
<circle opacity="0.4" cx="60.25" cy="188.75" r="0.75" fill="white"/>
<circle opacity="0.4" cx="73.75" cy="188.75" r="0.75" fill="white"/>
<circle opacity="0.4" cx="87.25" cy="188.75" r="0.75" fill="white"/>
<circle opacity="0.4" cx="100.75" cy="188.75" r="0.75" fill="white"/>
<circle opacity="0.4" cx="114.25" cy="188.75" r="0.75" fill="white"/>
<circle opacity="0.4" cx="127.75" cy="188.75" r="0.75" fill="white"/>
<circle opacity="0.4" cx="141.25" cy="188.75" r="0.75" fill="white"/>
<circle opacity="0.4" cx="154.75" cy="188.75" r="0.75" fill="white"/>
<circle opacity="0.4" cx="168.25" cy="188.75" r="0.75" fill="white"/>
<circle opacity="0.4" cx="181.75" cy="188.75" r="0.75" fill="white"/>
<circle opacity="0.4" cx="195.25" cy="188.75" r="0.75" fill="white"/>
<circle opacity="0.4" cx="208.75" cy="188.75" r="0.75" fill="white"/>
<circle opacity="0.4" cx="222.25" cy="188.75" r="0.75" fill="white"/>
<circle opacity="0.4" cx="235.75" cy="188.75" r="0.75" fill="white"/>
<circle opacity="0.4" cx="249.25" cy="188.75" r="0.75" fill="white"/>
<circle opacity="0.4" cx="262.75" cy="188.75" r="0.75" fill="white"/>
<circle opacity="0.4" cx="276.25" cy="188.75" r="0.75" fill="white"/>
<circle opacity="0.4" cx="289.75" cy="188.75" r="0.75" fill="white"/>
<circle opacity="0.4" cx="303.25" cy="188.75" r="0.75" fill="white"/>
<circle opacity="0.4" cx="316.75" cy="188.75" r="0.75" fill="white"/>
<circle opacity="0.4" cx="330.25" cy="188.75" r="0.75" fill="white"/>
<circle opacity="0.4" cx="6.25" cy="202.25" r="0.75" fill="white"/>
<circle opacity="0.4" cx="19.75" cy="202.25" r="0.75" fill="white"/>
<circle opacity="0.4" cx="33.25" cy="202.25" r="0.75" fill="white"/>
<circle opacity="0.4" cx="46.75" cy="202.25" r="0.75" fill="white"/>
<circle opacity="0.4" cx="60.25" cy="202.25" r="0.75" fill="white"/>
<circle opacity="0.4" cx="73.75" cy="202.25" r="0.75" fill="white"/>
<circle opacity="0.4" cx="87.25" cy="202.25" r="0.75" fill="white"/>
<circle opacity="0.4" cx="100.75" cy="202.25" r="0.75" fill="white"/>
<circle opacity="0.4" cx="114.25" cy="202.25" r="0.75" fill="white"/>
<circle opacity="0.4" cx="127.75" cy="202.25" r="0.75" fill="white"/>
<circle opacity="0.4" cx="141.25" cy="202.25" r="0.75" fill="white"/>
<circle opacity="0.4" cx="154.75" cy="202.25" r="0.75" fill="white"/>
<circle opacity="0.4" cx="168.25" cy="202.25" r="0.75" fill="white"/>
<circle opacity="0.4" cx="181.75" cy="202.25" r="0.75" fill="white"/>
<circle opacity="0.4" cx="195.25" cy="202.25" r="0.75" fill="white"/>
<circle opacity="0.4" cx="208.75" cy="202.25" r="0.75" fill="white"/>
<circle opacity="0.4" cx="222.25" cy="202.25" r="0.75" fill="white"/>
<circle opacity="0.4" cx="235.75" cy="202.25" r="0.75" fill="white"/>
<circle opacity="0.4" cx="249.25" cy="202.25" r="0.75" fill="white"/>
<circle opacity="0.4" cx="262.75" cy="202.25" r="0.75" fill="white"/>
<circle opacity="0.4" cx="276.25" cy="202.25" r="0.75" fill="white"/>
<circle opacity="0.4" cx="289.75" cy="202.25" r="0.75" fill="white"/>
<circle opacity="0.4" cx="303.25" cy="202.25" r="0.75" fill="white"/>
<circle opacity="0.4" cx="316.75" cy="202.25" r="0.75" fill="white"/>
<circle opacity="0.4" cx="330.25" cy="202.25" r="0.75" fill="white"/>
<circle opacity="0.4" cx="6.25" cy="215.75" r="0.75" fill="white"/>
<circle opacity="0.4" cx="19.75" cy="215.75" r="0.75" fill="white"/>
<circle opacity="0.4" cx="33.25" cy="215.75" r="0.75" fill="white"/>
<circle opacity="0.4" cx="46.75" cy="215.75" r="0.75" fill="white"/>
<circle opacity="0.4" cx="60.25" cy="215.75" r="0.75" fill="white"/>
<circle opacity="0.4" cx="73.75" cy="215.75" r="0.75" fill="white"/>
<circle opacity="0.4" cx="87.25" cy="215.75" r="0.75" fill="white"/>
<circle opacity="0.4" cx="100.75" cy="215.75" r="0.75" fill="white"/>
<circle opacity="0.4" cx="114.25" cy="215.75" r="0.75" fill="white"/>
<circle opacity="0.4" cx="127.75" cy="215.75" r="0.75" fill="white"/>
<circle opacity="0.4" cx="141.25" cy="215.75" r="0.75" fill="white"/>
<circle opacity="0.4" cx="154.75" cy="215.75" r="0.75" fill="white"/>
<circle opacity="0.4" cx="168.25" cy="215.75" r="0.75" fill="white"/>
<circle opacity="0.4" cx="181.75" cy="215.75" r="0.75" fill="white"/>
<circle opacity="0.4" cx="195.25" cy="215.75" r="0.75" fill="white"/>
<circle opacity="0.4" cx="208.75" cy="215.75" r="0.75" fill="white"/>
<circle opacity="0.4" cx="222.25" cy="215.75" r="0.75" fill="white"/>
<circle opacity="0.4" cx="235.75" cy="215.75" r="0.75" fill="white"/>
<circle opacity="0.4" cx="249.25" cy="215.75" r="0.75" fill="white"/>
<circle opacity="0.4" cx="262.75" cy="215.75" r="0.75" fill="white"/>
<circle opacity="0.4" cx="276.25" cy="215.75" r="0.75" fill="white"/>
<circle opacity="0.4" cx="289.75" cy="215.75" r="0.75" fill="white"/>
<circle opacity="0.4" cx="303.25" cy="215.75" r="0.75" fill="white"/>
<circle opacity="0.4" cx="316.75" cy="215.75" r="0.75" fill="white"/>
<circle opacity="0.4" cx="330.25" cy="215.75" r="0.75" fill="white"/>
<circle opacity="0.4" cx="6.25" cy="229.25" r="0.75" fill="white"/>
<circle opacity="0.4" cx="19.75" cy="229.25" r="0.75" fill="white"/>
<circle opacity="0.4" cx="33.25" cy="229.25" r="0.75" fill="white"/>
<circle opacity="0.4" cx="46.75" cy="229.25" r="0.75" fill="white"/>
<circle opacity="0.4" cx="60.25" cy="229.25" r="0.75" fill="white"/>
<circle opacity="0.4" cx="73.75" cy="229.25" r="0.75" fill="white"/>
<circle opacity="0.4" cx="87.25" cy="229.25" r="0.75" fill="white"/>
<circle opacity="0.4" cx="100.75" cy="229.25" r="0.75" fill="white"/>
<circle opacity="0.4" cx="114.25" cy="229.25" r="0.75" fill="white"/>
<circle opacity="0.4" cx="127.75" cy="229.25" r="0.75" fill="white"/>
<circle opacity="0.4" cx="141.25" cy="229.25" r="0.75" fill="white"/>
<circle opacity="0.4" cx="154.75" cy="229.25" r="0.75" fill="white"/>
<circle opacity="0.4" cx="168.25" cy="229.25" r="0.75" fill="white"/>
<circle opacity="0.4" cx="181.75" cy="229.25" r="0.75" fill="white"/>
<circle opacity="0.4" cx="195.25" cy="229.25" r="0.75" fill="white"/>
<circle opacity="0.4" cx="208.75" cy="229.25" r="0.75" fill="white"/>
<circle opacity="0.4" cx="222.25" cy="229.25" r="0.75" fill="white"/>
<circle opacity="0.4" cx="235.75" cy="229.25" r="0.75" fill="white"/>
<circle opacity="0.4" cx="249.25" cy="229.25" r="0.75" fill="white"/>
<circle opacity="0.4" cx="262.75" cy="229.25" r="0.75" fill="white"/>
<circle opacity="0.4" cx="276.25" cy="229.25" r="0.75" fill="white"/>
<circle opacity="0.4" cx="289.75" cy="229.25" r="0.75" fill="white"/>
<circle opacity="0.4" cx="303.25" cy="229.25" r="0.75" fill="white"/>
<circle opacity="0.4" cx="316.75" cy="229.25" r="0.75" fill="white"/>
<circle opacity="0.4" cx="330.25" cy="229.25" r="0.75" fill="white"/>
<circle opacity="0.4" cx="6.25" cy="242.75" r="0.75" fill="white"/>
<circle opacity="0.4" cx="19.75" cy="242.75" r="0.75" fill="white"/>
<circle opacity="0.4" cx="33.25" cy="242.75" r="0.75" fill="white"/>
<circle opacity="0.4" cx="46.75" cy="242.75" r="0.75" fill="white"/>
<circle opacity="0.4" cx="60.25" cy="242.75" r="0.75" fill="white"/>
<circle opacity="0.4" cx="73.75" cy="242.75" r="0.75" fill="white"/>
<circle opacity="0.4" cx="87.25" cy="242.75" r="0.75" fill="white"/>
<circle opacity="0.4" cx="100.75" cy="242.75" r="0.75" fill="white"/>
<circle opacity="0.4" cx="114.25" cy="242.75" r="0.75" fill="white"/>
<circle opacity="0.4" cx="127.75" cy="242.75" r="0.75" fill="white"/>
<circle opacity="0.4" cx="141.25" cy="242.75" r="0.75" fill="white"/>
<circle opacity="0.4" cx="154.75" cy="242.75" r="0.75" fill="white"/>
<circle opacity="0.4" cx="168.25" cy="242.75" r="0.75" fill="white"/>
<circle opacity="0.4" cx="181.75" cy="242.75" r="0.75" fill="white"/>
<circle opacity="0.4" cx="195.25" cy="242.75" r="0.75" fill="white"/>
<circle opacity="0.4" cx="208.75" cy="242.75" r="0.75" fill="white"/>
<circle opacity="0.4" cx="222.25" cy="242.75" r="0.75" fill="white"/>
<circle opacity="0.4" cx="235.75" cy="242.75" r="0.75" fill="white"/>
<circle opacity="0.4" cx="249.25" cy="242.75" r="0.75" fill="white"/>
<circle opacity="0.4" cx="262.75" cy="242.75" r="0.75" fill="white"/>
<circle opacity="0.4" cx="276.25" cy="242.75" r="0.75" fill="white"/>
<circle opacity="0.4" cx="289.75" cy="242.75" r="0.75" fill="white"/>
<circle opacity="0.4" cx="303.25" cy="242.75" r="0.75" fill="white"/>
<circle opacity="0.4" cx="316.75" cy="242.75" r="0.75" fill="white"/>
<circle opacity="0.4" cx="330.25" cy="242.75" r="0.75" fill="white"/>
<circle opacity="0.4" cx="6.25" cy="256.25" r="0.75" fill="white"/>
<circle opacity="0.4" cx="19.75" cy="256.25" r="0.75" fill="white"/>
<circle opacity="0.4" cx="33.25" cy="256.25" r="0.75" fill="white"/>
<circle opacity="0.4" cx="46.75" cy="256.25" r="0.75" fill="white"/>
<circle opacity="0.4" cx="60.25" cy="256.25" r="0.75" fill="white"/>
<circle opacity="0.4" cx="73.75" cy="256.25" r="0.75" fill="white"/>
<circle opacity="0.4" cx="87.25" cy="256.25" r="0.75" fill="white"/>
<circle opacity="0.4" cx="100.75" cy="256.25" r="0.75" fill="white"/>
<circle opacity="0.4" cx="114.25" cy="256.25" r="0.75" fill="white"/>
<circle opacity="0.4" cx="127.75" cy="256.25" r="0.75" fill="white"/>
<circle opacity="0.4" cx="141.25" cy="256.25" r="0.75" fill="white"/>
<circle opacity="0.4" cx="154.75" cy="256.25" r="0.75" fill="white"/>
<circle opacity="0.4" cx="168.25" cy="256.25" r="0.75" fill="white"/>
<circle opacity="0.4" cx="181.75" cy="256.25" r="0.75" fill="white"/>
<circle opacity="0.4" cx="195.25" cy="256.25" r="0.75" fill="white"/>
<circle opacity="0.4" cx="208.75" cy="256.25" r="0.75" fill="white"/>
<circle opacity="0.4" cx="222.25" cy="256.25" r="0.75" fill="white"/>
<circle opacity="0.4" cx="235.75" cy="256.25" r="0.75" fill="white"/>
<circle opacity="0.4" cx="249.25" cy="256.25" r="0.75" fill="white"/>
<circle opacity="0.4" cx="262.75" cy="256.25" r="0.75" fill="white"/>
<circle opacity="0.4" cx="276.25" cy="256.25" r="0.75" fill="white"/>
<circle opacity="0.4" cx="289.75" cy="256.25" r="0.75" fill="white"/>
<circle opacity="0.4" cx="303.25" cy="256.25" r="0.75" fill="white"/>
<circle opacity="0.4" cx="316.75" cy="256.25" r="0.75" fill="white"/>
<circle opacity="0.4" cx="330.25" cy="256.25" r="0.75" fill="white"/>
<circle opacity="0.4" cx="6.25" cy="269.75" r="0.75" fill="white"/>
<circle opacity="0.4" cx="19.75" cy="269.75" r="0.75" fill="white"/>
<circle opacity="0.4" cx="33.25" cy="269.75" r="0.75" fill="white"/>
<circle opacity="0.4" cx="46.75" cy="269.75" r="0.75" fill="white"/>
<circle opacity="0.4" cx="60.25" cy="269.75" r="0.75" fill="white"/>
<circle opacity="0.4" cx="73.75" cy="269.75" r="0.75" fill="white"/>
<circle opacity="0.4" cx="87.25" cy="269.75" r="0.75" fill="white"/>
<circle opacity="0.4" cx="100.75" cy="269.75" r="0.75" fill="white"/>
<circle opacity="0.4" cx="114.25" cy="269.75" r="0.75" fill="white"/>
<circle opacity="0.4" cx="127.75" cy="269.75" r="0.75" fill="white"/>
<circle opacity="0.4" cx="141.25" cy="269.75" r="0.75" fill="white"/>
<circle opacity="0.4" cx="154.75" cy="269.75" r="0.75" fill="white"/>
<circle opacity="0.4" cx="168.25" cy="269.75" r="0.75" fill="white"/>
<circle opacity="0.4" cx="181.75" cy="269.75" r="0.75" fill="white"/>
<circle opacity="0.4" cx="195.25" cy="269.75" r="0.75" fill="white"/>
<circle opacity="0.4" cx="208.75" cy="269.75" r="0.75" fill="white"/>
<circle opacity="0.4" cx="222.25" cy="269.75" r="0.75" fill="white"/>
<circle opacity="0.4" cx="235.75" cy="269.75" r="0.75" fill="white"/>
<circle opacity="0.4" cx="249.25" cy="269.75" r="0.75" fill="white"/>
<circle opacity="0.4" cx="262.75" cy="269.75" r="0.75" fill="white"/>
<circle opacity="0.4" cx="276.25" cy="269.75" r="0.75" fill="white"/>
<circle opacity="0.4" cx="289.75" cy="269.75" r="0.75" fill="white"/>
<circle opacity="0.4" cx="303.25" cy="269.75" r="0.75" fill="white"/>
<circle opacity="0.4" cx="316.75" cy="269.75" r="0.75" fill="white"/>
<circle opacity="0.4" cx="330.25" cy="269.75" r="0.75" fill="white"/>
<circle opacity="0.4" cx="6.25" cy="283.25" r="0.75" fill="white"/>
<circle opacity="0.4" cx="19.75" cy="283.25" r="0.75" fill="white"/>
<circle opacity="0.4" cx="33.25" cy="283.25" r="0.75" fill="white"/>
<circle opacity="0.4" cx="46.75" cy="283.25" r="0.75" fill="white"/>
<circle opacity="0.4" cx="60.25" cy="283.25" r="0.75" fill="white"/>
<circle opacity="0.4" cx="73.75" cy="283.25" r="0.75" fill="white"/>
<circle opacity="0.4" cx="87.25" cy="283.25" r="0.75" fill="white"/>
<circle opacity="0.4" cx="100.75" cy="283.25" r="0.75" fill="white"/>
<circle opacity="0.4" cx="114.25" cy="283.25" r="0.75" fill="white"/>
<circle opacity="0.4" cx="127.75" cy="283.25" r="0.75" fill="white"/>
<circle opacity="0.4" cx="141.25" cy="283.25" r="0.75" fill="white"/>
<circle opacity="0.4" cx="154.75" cy="283.25" r="0.75" fill="white"/>
<circle opacity="0.4" cx="168.25" cy="283.25" r="0.75" fill="white"/>
<circle opacity="0.4" cx="181.75" cy="283.25" r="0.75" fill="white"/>
<circle opacity="0.4" cx="195.25" cy="283.25" r="0.75" fill="white"/>
<circle opacity="0.4" cx="208.75" cy="283.25" r="0.75" fill="white"/>
<circle opacity="0.4" cx="222.25" cy="283.25" r="0.75" fill="white"/>
<circle opacity="0.4" cx="235.75" cy="283.25" r="0.75" fill="white"/>
<circle opacity="0.4" cx="249.25" cy="283.25" r="0.75" fill="white"/>
<circle opacity="0.4" cx="262.75" cy="283.25" r="0.75" fill="white"/>
<circle opacity="0.4" cx="276.25" cy="283.25" r="0.75" fill="white"/>
<circle opacity="0.4" cx="289.75" cy="283.25" r="0.75" fill="white"/>
<circle opacity="0.4" cx="303.25" cy="283.25" r="0.75" fill="white"/>
<circle opacity="0.4" cx="316.75" cy="283.25" r="0.75" fill="white"/>
<circle opacity="0.4" cx="330.25" cy="283.25" r="0.75" fill="white"/>
<circle opacity="0.4" cx="6.25" cy="296.75" r="0.75" fill="white"/>
<circle opacity="0.4" cx="19.75" cy="296.75" r="0.75" fill="white"/>
<circle opacity="0.4" cx="33.25" cy="296.75" r="0.75" fill="white"/>
<circle opacity="0.4" cx="46.75" cy="296.75" r="0.75" fill="white"/>
<circle opacity="0.4" cx="60.25" cy="296.75" r="0.75" fill="white"/>
<circle opacity="0.4" cx="73.75" cy="296.75" r="0.75" fill="white"/>
<circle opacity="0.4" cx="87.25" cy="296.75" r="0.75" fill="white"/>
<circle opacity="0.4" cx="100.75" cy="296.75" r="0.75" fill="white"/>
<circle opacity="0.4" cx="114.25" cy="296.75" r="0.75" fill="white"/>
<circle opacity="0.4" cx="127.75" cy="296.75" r="0.75" fill="white"/>
<circle opacity="0.4" cx="141.25" cy="296.75" r="0.75" fill="white"/>
<circle opacity="0.4" cx="154.75" cy="296.75" r="0.75" fill="white"/>
<circle opacity="0.4" cx="168.25" cy="296.75" r="0.75" fill="white"/>
<circle opacity="0.4" cx="181.75" cy="296.75" r="0.75" fill="white"/>
<circle opacity="0.4" cx="195.25" cy="296.75" r="0.75" fill="white"/>
<circle opacity="0.4" cx="208.75" cy="296.75" r="0.75" fill="white"/>
<circle opacity="0.4" cx="222.25" cy="296.75" r="0.75" fill="white"/>
<circle opacity="0.4" cx="235.75" cy="296.75" r="0.75" fill="white"/>
<circle opacity="0.4" cx="249.25" cy="296.75" r="0.75" fill="white"/>
<circle opacity="0.4" cx="262.75" cy="296.75" r="0.75" fill="white"/>
<circle opacity="0.4" cx="276.25" cy="296.75" r="0.75" fill="white"/>
<circle opacity="0.4" cx="289.75" cy="296.75" r="0.75" fill="white"/>
<circle opacity="0.4" cx="303.25" cy="296.75" r="0.75" fill="white"/>
<circle opacity="0.4" cx="316.75" cy="296.75" r="0.75" fill="white"/>
<circle opacity="0.4" cx="330.25" cy="296.75" r="0.75" fill="white"/>
<circle opacity="0.4" cx="6.25" cy="310.25" r="0.75" fill="white"/>
<circle opacity="0.4" cx="19.75" cy="310.25" r="0.75" fill="white"/>
<circle opacity="0.4" cx="33.25" cy="310.25" r="0.75" fill="white"/>
<circle opacity="0.4" cx="46.75" cy="310.25" r="0.75" fill="white"/>
<circle opacity="0.4" cx="60.25" cy="310.25" r="0.75" fill="white"/>
<circle opacity="0.4" cx="73.75" cy="310.25" r="0.75" fill="white"/>
<circle opacity="0.4" cx="87.25" cy="310.25" r="0.75" fill="white"/>
<circle opacity="0.4" cx="100.75" cy="310.25" r="0.75" fill="white"/>
<circle opacity="0.4" cx="114.25" cy="310.25" r="0.75" fill="white"/>
<circle opacity="0.4" cx="127.75" cy="310.25" r="0.75" fill="white"/>
<circle opacity="0.4" cx="141.25" cy="310.25" r="0.75" fill="white"/>
<circle opacity="0.4" cx="154.75" cy="310.25" r="0.75" fill="white"/>
<circle opacity="0.4" cx="168.25" cy="310.25" r="0.75" fill="white"/>
<circle opacity="0.4" cx="181.75" cy="310.25" r="0.75" fill="white"/>
<circle opacity="0.4" cx="195.25" cy="310.25" r="0.75" fill="white"/>
<circle opacity="0.4" cx="208.75" cy="310.25" r="0.75" fill="white"/>
<circle opacity="0.4" cx="222.25" cy="310.25" r="0.75" fill="white"/>
<circle opacity="0.4" cx="235.75" cy="310.25" r="0.75" fill="white"/>
<circle opacity="0.4" cx="249.25" cy="310.25" r="0.75" fill="white"/>
<circle opacity="0.4" cx="262.75" cy="310.25" r="0.75" fill="white"/>
<circle opacity="0.4" cx="276.25" cy="310.25" r="0.75" fill="white"/>
<circle opacity="0.4" cx="289.75" cy="310.25" r="0.75" fill="white"/>
<circle opacity="0.4" cx="303.25" cy="310.25" r="0.75" fill="white"/>
<circle opacity="0.4" cx="316.75" cy="310.25" r="0.75" fill="white"/>
<circle opacity="0.4" cx="330.25" cy="310.25" r="0.75" fill="white"/>
<circle opacity="0.4" cx="6.25" cy="323.75" r="0.75" fill="white"/>
<circle opacity="0.4" cx="19.75" cy="323.75" r="0.75" fill="white"/>
<circle opacity="0.4" cx="33.25" cy="323.75" r="0.75" fill="white"/>
<circle opacity="0.4" cx="46.75" cy="323.75" r="0.75" fill="white"/>
<circle opacity="0.4" cx="60.25" cy="323.75" r="0.75" fill="white"/>
<circle opacity="0.4" cx="73.75" cy="323.75" r="0.75" fill="white"/>
<circle opacity="0.4" cx="87.25" cy="323.75" r="0.75" fill="white"/>
<circle opacity="0.4" cx="100.75" cy="323.75" r="0.75" fill="white"/>
<circle opacity="0.4" cx="114.25" cy="323.75" r="0.75" fill="white"/>
<circle opacity="0.4" cx="127.75" cy="323.75" r="0.75" fill="white"/>
<circle opacity="0.4" cx="141.25" cy="323.75" r="0.75" fill="white"/>
<circle opacity="0.4" cx="154.75" cy="323.75" r="0.75" fill="white"/>
<circle opacity="0.4" cx="168.25" cy="323.75" r="0.75" fill="white"/>
<circle opacity="0.4" cx="181.75" cy="323.75" r="0.75" fill="white"/>
<circle opacity="0.4" cx="195.25" cy="323.75" r="0.75" fill="white"/>
<circle opacity="0.4" cx="208.75" cy="323.75" r="0.75" fill="white"/>
<circle opacity="0.4" cx="222.25" cy="323.75" r="0.75" fill="white"/>
<circle opacity="0.4" cx="235.75" cy="323.75" r="0.75" fill="white"/>
<circle opacity="0.4" cx="249.25" cy="323.75" r="0.75" fill="white"/>
<circle opacity="0.4" cx="262.75" cy="323.75" r="0.75" fill="white"/>
<circle opacity="0.4" cx="276.25" cy="323.75" r="0.75" fill="white"/>
<circle opacity="0.4" cx="289.75" cy="323.75" r="0.75" fill="white"/>
<circle opacity="0.4" cx="303.25" cy="323.75" r="0.75" fill="white"/>
<circle opacity="0.4" cx="316.75" cy="323.75" r="0.75" fill="white"/>
<circle opacity="0.4" cx="330.25" cy="323.75" r="0.75" fill="white"/>
</g>
<defs>
<radialGradient id="paint0_radial_8353_93479" cx="0" cy="0" r="1" gradientUnits="userSpaceOnUse" gradientTransform="translate(168 168) rotate(90) scale(168 168)">
<stop/>
<stop offset="1" stop-opacity="0"/>
</radialGradient>
</defs>
</svg>
