<svg width="336" height="336" viewBox="0 0 336 336" fill="none" xmlns="http://www.w3.org/2000/svg">
<mask id="mask0_4947_375932" style="mask-type:alpha" maskUnits="userSpaceOnUse" x="0" y="0" width="336" height="336">
<rect width="336" height="336" fill="url(#paint0_radial_4947_375932)"/>
</mask>
<g mask="url(#mask0_4947_375932)">
<path d="M8 6.5C8 7.32843 7.32843 8 6.5 8C5.67157 8 5 7.32843 5 6.5C5 5.67157 5.67157 5 6.5 5C7.32843 5 8 5.67157 8 6.5Z" fill="#D0D5DD"/>
<path d="M27 6.5C27 7.32843 26.3284 8 25.5 8C24.6716 8 24 7.32843 24 6.5C24 5.67157 24.6716 5 25.5 5C26.3284 5 27 5.67157 27 6.5Z" fill="#D0D5DD"/>
<path d="M46 6.5C46 7.32843 45.3284 8 44.5 8C43.6716 8 43 7.32843 43 6.5C43 5.67157 43.6716 5 44.5 5C45.3284 5 46 5.67157 46 6.5Z" fill="#D0D5DD"/>
<path d="M65 6.5C65 7.32843 64.3284 8 63.5 8C62.6716 8 62 7.32843 62 6.5C62 5.67157 62.6716 5 63.5 5C64.3284 5 65 5.67157 65 6.5Z" fill="#D0D5DD"/>
<path d="M84 6.5C84 7.32843 83.3284 8 82.5 8C81.6716 8 81 7.32843 81 6.5C81 5.67157 81.6716 5 82.5 5C83.3284 5 84 5.67157 84 6.5Z" fill="#D0D5DD"/>
<path d="M103 6.5C103 7.32843 102.328 8 101.5 8C100.672 8 100 7.32843 100 6.5C100 5.67157 100.672 5 101.5 5C102.328 5 103 5.67157 103 6.5Z" fill="#D0D5DD"/>
<path d="M122 6.5C122 7.32843 121.328 8 120.5 8C119.672 8 119 7.32843 119 6.5C119 5.67157 119.672 5 120.5 5C121.328 5 122 5.67157 122 6.5Z" fill="#D0D5DD"/>
<path d="M141 6.5C141 7.32843 140.328 8 139.5 8C138.672 8 138 7.32843 138 6.5C138 5.67157 138.672 5 139.5 5C140.328 5 141 5.67157 141 6.5Z" fill="#D0D5DD"/>
<path d="M160 6.5C160 7.32843 159.328 8 158.5 8C157.672 8 157 7.32843 157 6.5C157 5.67157 157.672 5 158.5 5C159.328 5 160 5.67157 160 6.5Z" fill="#D0D5DD"/>
<path d="M179 6.5C179 7.32843 178.328 8 177.5 8C176.672 8 176 7.32843 176 6.5C176 5.67157 176.672 5 177.5 5C178.328 5 179 5.67157 179 6.5Z" fill="#D0D5DD"/>
<path d="M198 6.5C198 7.32843 197.328 8 196.5 8C195.672 8 195 7.32843 195 6.5C195 5.67157 195.672 5 196.5 5C197.328 5 198 5.67157 198 6.5Z" fill="#D0D5DD"/>
<path d="M217 6.5C217 7.32843 216.328 8 215.5 8C214.672 8 214 7.32843 214 6.5C214 5.67157 214.672 5 215.5 5C216.328 5 217 5.67157 217 6.5Z" fill="#D0D5DD"/>
<path d="M236 6.5C236 7.32843 235.328 8 234.5 8C233.672 8 233 7.32843 233 6.5C233 5.67157 233.672 5 234.5 5C235.328 5 236 5.67157 236 6.5Z" fill="#D0D5DD"/>
<path d="M255 6.5C255 7.32843 254.328 8 253.5 8C252.672 8 252 7.32843 252 6.5C252 5.67157 252.672 5 253.5 5C254.328 5 255 5.67157 255 6.5Z" fill="#D0D5DD"/>
<path d="M274 6.5C274 7.32843 273.328 8 272.5 8C271.672 8 271 7.32843 271 6.5C271 5.67157 271.672 5 272.5 5C273.328 5 274 5.67157 274 6.5Z" fill="#D0D5DD"/>
<path d="M293 6.5C293 7.32843 292.328 8 291.5 8C290.672 8 290 7.32843 290 6.5C290 5.67157 290.672 5 291.5 5C292.328 5 293 5.67157 293 6.5Z" fill="#D0D5DD"/>
<path d="M312 6.5C312 7.32843 311.328 8 310.5 8C309.672 8 309 7.32843 309 6.5C309 5.67157 309.672 5 310.5 5C311.328 5 312 5.67157 312 6.5Z" fill="#D0D5DD"/>
<path d="M331 6.5C331 7.32843 330.328 8 329.5 8C328.672 8 328 7.32843 328 6.5C328 5.67157 328.672 5 329.5 5C330.328 5 331 5.67157 331 6.5Z" fill="#D0D5DD"/>
<path d="M8 25.5C8 26.3284 7.32843 27 6.5 27C5.67157 27 5 26.3284 5 25.5C5 24.6716 5.67157 24 6.5 24C7.32843 24 8 24.6716 8 25.5Z" fill="#D0D5DD"/>
<path d="M27 25.5C27 26.3284 26.3284 27 25.5 27C24.6716 27 24 26.3284 24 25.5C24 24.6716 24.6716 24 25.5 24C26.3284 24 27 24.6716 27 25.5Z" fill="#D0D5DD"/>
<path d="M46 25.5C46 26.3284 45.3284 27 44.5 27C43.6716 27 43 26.3284 43 25.5C43 24.6716 43.6716 24 44.5 24C45.3284 24 46 24.6716 46 25.5Z" fill="#D0D5DD"/>
<path d="M65 25.5C65 26.3284 64.3284 27 63.5 27C62.6716 27 62 26.3284 62 25.5C62 24.6716 62.6716 24 63.5 24C64.3284 24 65 24.6716 65 25.5Z" fill="#D0D5DD"/>
<path d="M84 25.5C84 26.3284 83.3284 27 82.5 27C81.6716 27 81 26.3284 81 25.5C81 24.6716 81.6716 24 82.5 24C83.3284 24 84 24.6716 84 25.5Z" fill="#D0D5DD"/>
<path d="M103 25.5C103 26.3284 102.328 27 101.5 27C100.672 27 100 26.3284 100 25.5C100 24.6716 100.672 24 101.5 24C102.328 24 103 24.6716 103 25.5Z" fill="#D0D5DD"/>
<path d="M122 25.5C122 26.3284 121.328 27 120.5 27C119.672 27 119 26.3284 119 25.5C119 24.6716 119.672 24 120.5 24C121.328 24 122 24.6716 122 25.5Z" fill="#D0D5DD"/>
<path d="M141 25.5C141 26.3284 140.328 27 139.5 27C138.672 27 138 26.3284 138 25.5C138 24.6716 138.672 24 139.5 24C140.328 24 141 24.6716 141 25.5Z" fill="#D0D5DD"/>
<path d="M160 25.5C160 26.3284 159.328 27 158.5 27C157.672 27 157 26.3284 157 25.5C157 24.6716 157.672 24 158.5 24C159.328 24 160 24.6716 160 25.5Z" fill="#D0D5DD"/>
<path d="M179 25.5C179 26.3284 178.328 27 177.5 27C176.672 27 176 26.3284 176 25.5C176 24.6716 176.672 24 177.5 24C178.328 24 179 24.6716 179 25.5Z" fill="#D0D5DD"/>
<path d="M198 25.5C198 26.3284 197.328 27 196.5 27C195.672 27 195 26.3284 195 25.5C195 24.6716 195.672 24 196.5 24C197.328 24 198 24.6716 198 25.5Z" fill="#D0D5DD"/>
<path d="M217 25.5C217 26.3284 216.328 27 215.5 27C214.672 27 214 26.3284 214 25.5C214 24.6716 214.672 24 215.5 24C216.328 24 217 24.6716 217 25.5Z" fill="#D0D5DD"/>
<path d="M236 25.5C236 26.3284 235.328 27 234.5 27C233.672 27 233 26.3284 233 25.5C233 24.6716 233.672 24 234.5 24C235.328 24 236 24.6716 236 25.5Z" fill="#D0D5DD"/>
<path d="M255 25.5C255 26.3284 254.328 27 253.5 27C252.672 27 252 26.3284 252 25.5C252 24.6716 252.672 24 253.5 24C254.328 24 255 24.6716 255 25.5Z" fill="#D0D5DD"/>
<path d="M274 25.5C274 26.3284 273.328 27 272.5 27C271.672 27 271 26.3284 271 25.5C271 24.6716 271.672 24 272.5 24C273.328 24 274 24.6716 274 25.5Z" fill="#D0D5DD"/>
<path d="M293 25.5C293 26.3284 292.328 27 291.5 27C290.672 27 290 26.3284 290 25.5C290 24.6716 290.672 24 291.5 24C292.328 24 293 24.6716 293 25.5Z" fill="#D0D5DD"/>
<path d="M312 25.5C312 26.3284 311.328 27 310.5 27C309.672 27 309 26.3284 309 25.5C309 24.6716 309.672 24 310.5 24C311.328 24 312 24.6716 312 25.5Z" fill="#D0D5DD"/>
<path d="M331 25.5C331 26.3284 330.328 27 329.5 27C328.672 27 328 26.3284 328 25.5C328 24.6716 328.672 24 329.5 24C330.328 24 331 24.6716 331 25.5Z" fill="#D0D5DD"/>
<path d="M8 44.5C8 45.3284 7.32843 46 6.5 46C5.67157 46 5 45.3284 5 44.5C5 43.6716 5.67157 43 6.5 43C7.32843 43 8 43.6716 8 44.5Z" fill="#D0D5DD"/>
<path d="M27 44.5C27 45.3284 26.3284 46 25.5 46C24.6716 46 24 45.3284 24 44.5C24 43.6716 24.6716 43 25.5 43C26.3284 43 27 43.6716 27 44.5Z" fill="#D0D5DD"/>
<path d="M46 44.5C46 45.3284 45.3284 46 44.5 46C43.6716 46 43 45.3284 43 44.5C43 43.6716 43.6716 43 44.5 43C45.3284 43 46 43.6716 46 44.5Z" fill="#D0D5DD"/>
<path d="M65 44.5C65 45.3284 64.3284 46 63.5 46C62.6716 46 62 45.3284 62 44.5C62 43.6716 62.6716 43 63.5 43C64.3284 43 65 43.6716 65 44.5Z" fill="#D0D5DD"/>
<path d="M84 44.5C84 45.3284 83.3284 46 82.5 46C81.6716 46 81 45.3284 81 44.5C81 43.6716 81.6716 43 82.5 43C83.3284 43 84 43.6716 84 44.5Z" fill="#D0D5DD"/>
<path d="M103 44.5C103 45.3284 102.328 46 101.5 46C100.672 46 100 45.3284 100 44.5C100 43.6716 100.672 43 101.5 43C102.328 43 103 43.6716 103 44.5Z" fill="#D0D5DD"/>
<path d="M122 44.5C122 45.3284 121.328 46 120.5 46C119.672 46 119 45.3284 119 44.5C119 43.6716 119.672 43 120.5 43C121.328 43 122 43.6716 122 44.5Z" fill="#D0D5DD"/>
<path d="M141 44.5C141 45.3284 140.328 46 139.5 46C138.672 46 138 45.3284 138 44.5C138 43.6716 138.672 43 139.5 43C140.328 43 141 43.6716 141 44.5Z" fill="#D0D5DD"/>
<path d="M160 44.5C160 45.3284 159.328 46 158.5 46C157.672 46 157 45.3284 157 44.5C157 43.6716 157.672 43 158.5 43C159.328 43 160 43.6716 160 44.5Z" fill="#D0D5DD"/>
<path d="M179 44.5C179 45.3284 178.328 46 177.5 46C176.672 46 176 45.3284 176 44.5C176 43.6716 176.672 43 177.5 43C178.328 43 179 43.6716 179 44.5Z" fill="#D0D5DD"/>
<path d="M198 44.5C198 45.3284 197.328 46 196.5 46C195.672 46 195 45.3284 195 44.5C195 43.6716 195.672 43 196.5 43C197.328 43 198 43.6716 198 44.5Z" fill="#D0D5DD"/>
<path d="M217 44.5C217 45.3284 216.328 46 215.5 46C214.672 46 214 45.3284 214 44.5C214 43.6716 214.672 43 215.5 43C216.328 43 217 43.6716 217 44.5Z" fill="#D0D5DD"/>
<path d="M236 44.5C236 45.3284 235.328 46 234.5 46C233.672 46 233 45.3284 233 44.5C233 43.6716 233.672 43 234.5 43C235.328 43 236 43.6716 236 44.5Z" fill="#D0D5DD"/>
<path d="M255 44.5C255 45.3284 254.328 46 253.5 46C252.672 46 252 45.3284 252 44.5C252 43.6716 252.672 43 253.5 43C254.328 43 255 43.6716 255 44.5Z" fill="#D0D5DD"/>
<path d="M274 44.5C274 45.3284 273.328 46 272.5 46C271.672 46 271 45.3284 271 44.5C271 43.6716 271.672 43 272.5 43C273.328 43 274 43.6716 274 44.5Z" fill="#D0D5DD"/>
<path d="M293 44.5C293 45.3284 292.328 46 291.5 46C290.672 46 290 45.3284 290 44.5C290 43.6716 290.672 43 291.5 43C292.328 43 293 43.6716 293 44.5Z" fill="#D0D5DD"/>
<path d="M312 44.5C312 45.3284 311.328 46 310.5 46C309.672 46 309 45.3284 309 44.5C309 43.6716 309.672 43 310.5 43C311.328 43 312 43.6716 312 44.5Z" fill="#D0D5DD"/>
<path d="M331 44.5C331 45.3284 330.328 46 329.5 46C328.672 46 328 45.3284 328 44.5C328 43.6716 328.672 43 329.5 43C330.328 43 331 43.6716 331 44.5Z" fill="#D0D5DD"/>
<path d="M8 63.5C8 64.3284 7.32843 65 6.5 65C5.67157 65 5 64.3284 5 63.5C5 62.6716 5.67157 62 6.5 62C7.32843 62 8 62.6716 8 63.5Z" fill="#D0D5DD"/>
<path d="M27 63.5C27 64.3284 26.3284 65 25.5 65C24.6716 65 24 64.3284 24 63.5C24 62.6716 24.6716 62 25.5 62C26.3284 62 27 62.6716 27 63.5Z" fill="#D0D5DD"/>
<path d="M46 63.5C46 64.3284 45.3284 65 44.5 65C43.6716 65 43 64.3284 43 63.5C43 62.6716 43.6716 62 44.5 62C45.3284 62 46 62.6716 46 63.5Z" fill="#D0D5DD"/>
<path d="M65 63.5C65 64.3284 64.3284 65 63.5 65C62.6716 65 62 64.3284 62 63.5C62 62.6716 62.6716 62 63.5 62C64.3284 62 65 62.6716 65 63.5Z" fill="#D0D5DD"/>
<path d="M84 63.5C84 64.3284 83.3284 65 82.5 65C81.6716 65 81 64.3284 81 63.5C81 62.6716 81.6716 62 82.5 62C83.3284 62 84 62.6716 84 63.5Z" fill="#D0D5DD"/>
<path d="M103 63.5C103 64.3284 102.328 65 101.5 65C100.672 65 100 64.3284 100 63.5C100 62.6716 100.672 62 101.5 62C102.328 62 103 62.6716 103 63.5Z" fill="#D0D5DD"/>
<path d="M122 63.5C122 64.3284 121.328 65 120.5 65C119.672 65 119 64.3284 119 63.5C119 62.6716 119.672 62 120.5 62C121.328 62 122 62.6716 122 63.5Z" fill="#D0D5DD"/>
<path d="M141 63.5C141 64.3284 140.328 65 139.5 65C138.672 65 138 64.3284 138 63.5C138 62.6716 138.672 62 139.5 62C140.328 62 141 62.6716 141 63.5Z" fill="#D0D5DD"/>
<path d="M160 63.5C160 64.3284 159.328 65 158.5 65C157.672 65 157 64.3284 157 63.5C157 62.6716 157.672 62 158.5 62C159.328 62 160 62.6716 160 63.5Z" fill="#D0D5DD"/>
<path d="M179 63.5C179 64.3284 178.328 65 177.5 65C176.672 65 176 64.3284 176 63.5C176 62.6716 176.672 62 177.5 62C178.328 62 179 62.6716 179 63.5Z" fill="#D0D5DD"/>
<path d="M198 63.5C198 64.3284 197.328 65 196.5 65C195.672 65 195 64.3284 195 63.5C195 62.6716 195.672 62 196.5 62C197.328 62 198 62.6716 198 63.5Z" fill="#D0D5DD"/>
<path d="M217 63.5C217 64.3284 216.328 65 215.5 65C214.672 65 214 64.3284 214 63.5C214 62.6716 214.672 62 215.5 62C216.328 62 217 62.6716 217 63.5Z" fill="#D0D5DD"/>
<path d="M236 63.5C236 64.3284 235.328 65 234.5 65C233.672 65 233 64.3284 233 63.5C233 62.6716 233.672 62 234.5 62C235.328 62 236 62.6716 236 63.5Z" fill="#D0D5DD"/>
<path d="M255 63.5C255 64.3284 254.328 65 253.5 65C252.672 65 252 64.3284 252 63.5C252 62.6716 252.672 62 253.5 62C254.328 62 255 62.6716 255 63.5Z" fill="#D0D5DD"/>
<path d="M274 63.5C274 64.3284 273.328 65 272.5 65C271.672 65 271 64.3284 271 63.5C271 62.6716 271.672 62 272.5 62C273.328 62 274 62.6716 274 63.5Z" fill="#D0D5DD"/>
<path d="M293 63.5C293 64.3284 292.328 65 291.5 65C290.672 65 290 64.3284 290 63.5C290 62.6716 290.672 62 291.5 62C292.328 62 293 62.6716 293 63.5Z" fill="#D0D5DD"/>
<path d="M312 63.5C312 64.3284 311.328 65 310.5 65C309.672 65 309 64.3284 309 63.5C309 62.6716 309.672 62 310.5 62C311.328 62 312 62.6716 312 63.5Z" fill="#D0D5DD"/>
<path d="M331 63.5C331 64.3284 330.328 65 329.5 65C328.672 65 328 64.3284 328 63.5C328 62.6716 328.672 62 329.5 62C330.328 62 331 62.6716 331 63.5Z" fill="#D0D5DD"/>
<path d="M8 82.5C8 83.3284 7.32843 84 6.5 84C5.67157 84 5 83.3284 5 82.5C5 81.6716 5.67157 81 6.5 81C7.32843 81 8 81.6716 8 82.5Z" fill="#D0D5DD"/>
<path d="M27 82.5C27 83.3284 26.3284 84 25.5 84C24.6716 84 24 83.3284 24 82.5C24 81.6716 24.6716 81 25.5 81C26.3284 81 27 81.6716 27 82.5Z" fill="#D0D5DD"/>
<path d="M46 82.5C46 83.3284 45.3284 84 44.5 84C43.6716 84 43 83.3284 43 82.5C43 81.6716 43.6716 81 44.5 81C45.3284 81 46 81.6716 46 82.5Z" fill="#D0D5DD"/>
<path d="M65 82.5C65 83.3284 64.3284 84 63.5 84C62.6716 84 62 83.3284 62 82.5C62 81.6716 62.6716 81 63.5 81C64.3284 81 65 81.6716 65 82.5Z" fill="#D0D5DD"/>
<path d="M84 82.5C84 83.3284 83.3284 84 82.5 84C81.6716 84 81 83.3284 81 82.5C81 81.6716 81.6716 81 82.5 81C83.3284 81 84 81.6716 84 82.5Z" fill="#D0D5DD"/>
<path d="M103 82.5C103 83.3284 102.328 84 101.5 84C100.672 84 100 83.3284 100 82.5C100 81.6716 100.672 81 101.5 81C102.328 81 103 81.6716 103 82.5Z" fill="#D0D5DD"/>
<path d="M122 82.5C122 83.3284 121.328 84 120.5 84C119.672 84 119 83.3284 119 82.5C119 81.6716 119.672 81 120.5 81C121.328 81 122 81.6716 122 82.5Z" fill="#D0D5DD"/>
<path d="M141 82.5C141 83.3284 140.328 84 139.5 84C138.672 84 138 83.3284 138 82.5C138 81.6716 138.672 81 139.5 81C140.328 81 141 81.6716 141 82.5Z" fill="#D0D5DD"/>
<path d="M160 82.5C160 83.3284 159.328 84 158.5 84C157.672 84 157 83.3284 157 82.5C157 81.6716 157.672 81 158.5 81C159.328 81 160 81.6716 160 82.5Z" fill="#D0D5DD"/>
<path d="M179 82.5C179 83.3284 178.328 84 177.5 84C176.672 84 176 83.3284 176 82.5C176 81.6716 176.672 81 177.5 81C178.328 81 179 81.6716 179 82.5Z" fill="#D0D5DD"/>
<path d="M198 82.5C198 83.3284 197.328 84 196.5 84C195.672 84 195 83.3284 195 82.5C195 81.6716 195.672 81 196.5 81C197.328 81 198 81.6716 198 82.5Z" fill="#D0D5DD"/>
<path d="M217 82.5C217 83.3284 216.328 84 215.5 84C214.672 84 214 83.3284 214 82.5C214 81.6716 214.672 81 215.5 81C216.328 81 217 81.6716 217 82.5Z" fill="#D0D5DD"/>
<path d="M236 82.5C236 83.3284 235.328 84 234.5 84C233.672 84 233 83.3284 233 82.5C233 81.6716 233.672 81 234.5 81C235.328 81 236 81.6716 236 82.5Z" fill="#D0D5DD"/>
<path d="M255 82.5C255 83.3284 254.328 84 253.5 84C252.672 84 252 83.3284 252 82.5C252 81.6716 252.672 81 253.5 81C254.328 81 255 81.6716 255 82.5Z" fill="#D0D5DD"/>
<path d="M274 82.5C274 83.3284 273.328 84 272.5 84C271.672 84 271 83.3284 271 82.5C271 81.6716 271.672 81 272.5 81C273.328 81 274 81.6716 274 82.5Z" fill="#D0D5DD"/>
<path d="M293 82.5C293 83.3284 292.328 84 291.5 84C290.672 84 290 83.3284 290 82.5C290 81.6716 290.672 81 291.5 81C292.328 81 293 81.6716 293 82.5Z" fill="#D0D5DD"/>
<path d="M312 82.5C312 83.3284 311.328 84 310.5 84C309.672 84 309 83.3284 309 82.5C309 81.6716 309.672 81 310.5 81C311.328 81 312 81.6716 312 82.5Z" fill="#D0D5DD"/>
<path d="M331 82.5C331 83.3284 330.328 84 329.5 84C328.672 84 328 83.3284 328 82.5C328 81.6716 328.672 81 329.5 81C330.328 81 331 81.6716 331 82.5Z" fill="#D0D5DD"/>
<path d="M8 101.5C8 102.328 7.32843 103 6.5 103C5.67157 103 5 102.328 5 101.5C5 100.672 5.67157 100 6.5 100C7.32843 100 8 100.672 8 101.5Z" fill="#D0D5DD"/>
<path d="M27 101.5C27 102.328 26.3284 103 25.5 103C24.6716 103 24 102.328 24 101.5C24 100.672 24.6716 100 25.5 100C26.3284 100 27 100.672 27 101.5Z" fill="#D0D5DD"/>
<path d="M46 101.5C46 102.328 45.3284 103 44.5 103C43.6716 103 43 102.328 43 101.5C43 100.672 43.6716 100 44.5 100C45.3284 100 46 100.672 46 101.5Z" fill="#D0D5DD"/>
<path d="M65 101.5C65 102.328 64.3284 103 63.5 103C62.6716 103 62 102.328 62 101.5C62 100.672 62.6716 100 63.5 100C64.3284 100 65 100.672 65 101.5Z" fill="#D0D5DD"/>
<path d="M84 101.5C84 102.328 83.3284 103 82.5 103C81.6716 103 81 102.328 81 101.5C81 100.672 81.6716 100 82.5 100C83.3284 100 84 100.672 84 101.5Z" fill="#D0D5DD"/>
<path d="M103 101.5C103 102.328 102.328 103 101.5 103C100.672 103 100 102.328 100 101.5C100 100.672 100.672 100 101.5 100C102.328 100 103 100.672 103 101.5Z" fill="#D0D5DD"/>
<path d="M122 101.5C122 102.328 121.328 103 120.5 103C119.672 103 119 102.328 119 101.5C119 100.672 119.672 100 120.5 100C121.328 100 122 100.672 122 101.5Z" fill="#D0D5DD"/>
<path d="M141 101.5C141 102.328 140.328 103 139.5 103C138.672 103 138 102.328 138 101.5C138 100.672 138.672 100 139.5 100C140.328 100 141 100.672 141 101.5Z" fill="#D0D5DD"/>
<path d="M160 101.5C160 102.328 159.328 103 158.5 103C157.672 103 157 102.328 157 101.5C157 100.672 157.672 100 158.5 100C159.328 100 160 100.672 160 101.5Z" fill="#D0D5DD"/>
<path d="M179 101.5C179 102.328 178.328 103 177.5 103C176.672 103 176 102.328 176 101.5C176 100.672 176.672 100 177.5 100C178.328 100 179 100.672 179 101.5Z" fill="#D0D5DD"/>
<path d="M198 101.5C198 102.328 197.328 103 196.5 103C195.672 103 195 102.328 195 101.5C195 100.672 195.672 100 196.5 100C197.328 100 198 100.672 198 101.5Z" fill="#D0D5DD"/>
<path d="M217 101.5C217 102.328 216.328 103 215.5 103C214.672 103 214 102.328 214 101.5C214 100.672 214.672 100 215.5 100C216.328 100 217 100.672 217 101.5Z" fill="#D0D5DD"/>
<path d="M236 101.5C236 102.328 235.328 103 234.5 103C233.672 103 233 102.328 233 101.5C233 100.672 233.672 100 234.5 100C235.328 100 236 100.672 236 101.5Z" fill="#D0D5DD"/>
<path d="M255 101.5C255 102.328 254.328 103 253.5 103C252.672 103 252 102.328 252 101.5C252 100.672 252.672 100 253.5 100C254.328 100 255 100.672 255 101.5Z" fill="#D0D5DD"/>
<path d="M274 101.5C274 102.328 273.328 103 272.5 103C271.672 103 271 102.328 271 101.5C271 100.672 271.672 100 272.5 100C273.328 100 274 100.672 274 101.5Z" fill="#D0D5DD"/>
<path d="M293 101.5C293 102.328 292.328 103 291.5 103C290.672 103 290 102.328 290 101.5C290 100.672 290.672 100 291.5 100C292.328 100 293 100.672 293 101.5Z" fill="#D0D5DD"/>
<path d="M312 101.5C312 102.328 311.328 103 310.5 103C309.672 103 309 102.328 309 101.5C309 100.672 309.672 100 310.5 100C311.328 100 312 100.672 312 101.5Z" fill="#D0D5DD"/>
<path d="M331 101.5C331 102.328 330.328 103 329.5 103C328.672 103 328 102.328 328 101.5C328 100.672 328.672 100 329.5 100C330.328 100 331 100.672 331 101.5Z" fill="#D0D5DD"/>
<path d="M8 120.5C8 121.328 7.32843 122 6.5 122C5.67157 122 5 121.328 5 120.5C5 119.672 5.67157 119 6.5 119C7.32843 119 8 119.672 8 120.5Z" fill="#D0D5DD"/>
<path d="M27 120.5C27 121.328 26.3284 122 25.5 122C24.6716 122 24 121.328 24 120.5C24 119.672 24.6716 119 25.5 119C26.3284 119 27 119.672 27 120.5Z" fill="#D0D5DD"/>
<path d="M46 120.5C46 121.328 45.3284 122 44.5 122C43.6716 122 43 121.328 43 120.5C43 119.672 43.6716 119 44.5 119C45.3284 119 46 119.672 46 120.5Z" fill="#D0D5DD"/>
<path d="M65 120.5C65 121.328 64.3284 122 63.5 122C62.6716 122 62 121.328 62 120.5C62 119.672 62.6716 119 63.5 119C64.3284 119 65 119.672 65 120.5Z" fill="#D0D5DD"/>
<path d="M84 120.5C84 121.328 83.3284 122 82.5 122C81.6716 122 81 121.328 81 120.5C81 119.672 81.6716 119 82.5 119C83.3284 119 84 119.672 84 120.5Z" fill="#D0D5DD"/>
<path d="M103 120.5C103 121.328 102.328 122 101.5 122C100.672 122 100 121.328 100 120.5C100 119.672 100.672 119 101.5 119C102.328 119 103 119.672 103 120.5Z" fill="#D0D5DD"/>
<path d="M122 120.5C122 121.328 121.328 122 120.5 122C119.672 122 119 121.328 119 120.5C119 119.672 119.672 119 120.5 119C121.328 119 122 119.672 122 120.5Z" fill="#D0D5DD"/>
<path d="M141 120.5C141 121.328 140.328 122 139.5 122C138.672 122 138 121.328 138 120.5C138 119.672 138.672 119 139.5 119C140.328 119 141 119.672 141 120.5Z" fill="#D0D5DD"/>
<path d="M160 120.5C160 121.328 159.328 122 158.5 122C157.672 122 157 121.328 157 120.5C157 119.672 157.672 119 158.5 119C159.328 119 160 119.672 160 120.5Z" fill="#D0D5DD"/>
<path d="M179 120.5C179 121.328 178.328 122 177.5 122C176.672 122 176 121.328 176 120.5C176 119.672 176.672 119 177.5 119C178.328 119 179 119.672 179 120.5Z" fill="#D0D5DD"/>
<path d="M198 120.5C198 121.328 197.328 122 196.5 122C195.672 122 195 121.328 195 120.5C195 119.672 195.672 119 196.5 119C197.328 119 198 119.672 198 120.5Z" fill="#D0D5DD"/>
<path d="M217 120.5C217 121.328 216.328 122 215.5 122C214.672 122 214 121.328 214 120.5C214 119.672 214.672 119 215.5 119C216.328 119 217 119.672 217 120.5Z" fill="#D0D5DD"/>
<path d="M236 120.5C236 121.328 235.328 122 234.5 122C233.672 122 233 121.328 233 120.5C233 119.672 233.672 119 234.5 119C235.328 119 236 119.672 236 120.5Z" fill="#D0D5DD"/>
<path d="M255 120.5C255 121.328 254.328 122 253.5 122C252.672 122 252 121.328 252 120.5C252 119.672 252.672 119 253.5 119C254.328 119 255 119.672 255 120.5Z" fill="#D0D5DD"/>
<path d="M274 120.5C274 121.328 273.328 122 272.5 122C271.672 122 271 121.328 271 120.5C271 119.672 271.672 119 272.5 119C273.328 119 274 119.672 274 120.5Z" fill="#D0D5DD"/>
<path d="M293 120.5C293 121.328 292.328 122 291.5 122C290.672 122 290 121.328 290 120.5C290 119.672 290.672 119 291.5 119C292.328 119 293 119.672 293 120.5Z" fill="#D0D5DD"/>
<path d="M312 120.5C312 121.328 311.328 122 310.5 122C309.672 122 309 121.328 309 120.5C309 119.672 309.672 119 310.5 119C311.328 119 312 119.672 312 120.5Z" fill="#D0D5DD"/>
<path d="M331 120.5C331 121.328 330.328 122 329.5 122C328.672 122 328 121.328 328 120.5C328 119.672 328.672 119 329.5 119C330.328 119 331 119.672 331 120.5Z" fill="#D0D5DD"/>
<path d="M8 139.5C8 140.328 7.32843 141 6.5 141C5.67157 141 5 140.328 5 139.5C5 138.672 5.67157 138 6.5 138C7.32843 138 8 138.672 8 139.5Z" fill="#D0D5DD"/>
<path d="M27 139.5C27 140.328 26.3284 141 25.5 141C24.6716 141 24 140.328 24 139.5C24 138.672 24.6716 138 25.5 138C26.3284 138 27 138.672 27 139.5Z" fill="#D0D5DD"/>
<path d="M46 139.5C46 140.328 45.3284 141 44.5 141C43.6716 141 43 140.328 43 139.5C43 138.672 43.6716 138 44.5 138C45.3284 138 46 138.672 46 139.5Z" fill="#D0D5DD"/>
<path d="M65 139.5C65 140.328 64.3284 141 63.5 141C62.6716 141 62 140.328 62 139.5C62 138.672 62.6716 138 63.5 138C64.3284 138 65 138.672 65 139.5Z" fill="#D0D5DD"/>
<path d="M84 139.5C84 140.328 83.3284 141 82.5 141C81.6716 141 81 140.328 81 139.5C81 138.672 81.6716 138 82.5 138C83.3284 138 84 138.672 84 139.5Z" fill="#D0D5DD"/>
<path d="M103 139.5C103 140.328 102.328 141 101.5 141C100.672 141 100 140.328 100 139.5C100 138.672 100.672 138 101.5 138C102.328 138 103 138.672 103 139.5Z" fill="#D0D5DD"/>
<path d="M122 139.5C122 140.328 121.328 141 120.5 141C119.672 141 119 140.328 119 139.5C119 138.672 119.672 138 120.5 138C121.328 138 122 138.672 122 139.5Z" fill="#D0D5DD"/>
<path d="M141 139.5C141 140.328 140.328 141 139.5 141C138.672 141 138 140.328 138 139.5C138 138.672 138.672 138 139.5 138C140.328 138 141 138.672 141 139.5Z" fill="#D0D5DD"/>
<path d="M160 139.5C160 140.328 159.328 141 158.5 141C157.672 141 157 140.328 157 139.5C157 138.672 157.672 138 158.5 138C159.328 138 160 138.672 160 139.5Z" fill="#D0D5DD"/>
<path d="M179 139.5C179 140.328 178.328 141 177.5 141C176.672 141 176 140.328 176 139.5C176 138.672 176.672 138 177.5 138C178.328 138 179 138.672 179 139.5Z" fill="#D0D5DD"/>
<path d="M198 139.5C198 140.328 197.328 141 196.5 141C195.672 141 195 140.328 195 139.5C195 138.672 195.672 138 196.5 138C197.328 138 198 138.672 198 139.5Z" fill="#D0D5DD"/>
<path d="M217 139.5C217 140.328 216.328 141 215.5 141C214.672 141 214 140.328 214 139.5C214 138.672 214.672 138 215.5 138C216.328 138 217 138.672 217 139.5Z" fill="#D0D5DD"/>
<path d="M236 139.5C236 140.328 235.328 141 234.5 141C233.672 141 233 140.328 233 139.5C233 138.672 233.672 138 234.5 138C235.328 138 236 138.672 236 139.5Z" fill="#D0D5DD"/>
<path d="M255 139.5C255 140.328 254.328 141 253.5 141C252.672 141 252 140.328 252 139.5C252 138.672 252.672 138 253.5 138C254.328 138 255 138.672 255 139.5Z" fill="#D0D5DD"/>
<path d="M274 139.5C274 140.328 273.328 141 272.5 141C271.672 141 271 140.328 271 139.5C271 138.672 271.672 138 272.5 138C273.328 138 274 138.672 274 139.5Z" fill="#D0D5DD"/>
<path d="M293 139.5C293 140.328 292.328 141 291.5 141C290.672 141 290 140.328 290 139.5C290 138.672 290.672 138 291.5 138C292.328 138 293 138.672 293 139.5Z" fill="#D0D5DD"/>
<path d="M312 139.5C312 140.328 311.328 141 310.5 141C309.672 141 309 140.328 309 139.5C309 138.672 309.672 138 310.5 138C311.328 138 312 138.672 312 139.5Z" fill="#D0D5DD"/>
<path d="M331 139.5C331 140.328 330.328 141 329.5 141C328.672 141 328 140.328 328 139.5C328 138.672 328.672 138 329.5 138C330.328 138 331 138.672 331 139.5Z" fill="#D0D5DD"/>
<path d="M8 158.5C8 159.328 7.32843 160 6.5 160C5.67157 160 5 159.328 5 158.5C5 157.672 5.67157 157 6.5 157C7.32843 157 8 157.672 8 158.5Z" fill="#D0D5DD"/>
<path d="M27 158.5C27 159.328 26.3284 160 25.5 160C24.6716 160 24 159.328 24 158.5C24 157.672 24.6716 157 25.5 157C26.3284 157 27 157.672 27 158.5Z" fill="#D0D5DD"/>
<path d="M46 158.5C46 159.328 45.3284 160 44.5 160C43.6716 160 43 159.328 43 158.5C43 157.672 43.6716 157 44.5 157C45.3284 157 46 157.672 46 158.5Z" fill="#D0D5DD"/>
<path d="M65 158.5C65 159.328 64.3284 160 63.5 160C62.6716 160 62 159.328 62 158.5C62 157.672 62.6716 157 63.5 157C64.3284 157 65 157.672 65 158.5Z" fill="#D0D5DD"/>
<path d="M84 158.5C84 159.328 83.3284 160 82.5 160C81.6716 160 81 159.328 81 158.5C81 157.672 81.6716 157 82.5 157C83.3284 157 84 157.672 84 158.5Z" fill="#D0D5DD"/>
<path d="M103 158.5C103 159.328 102.328 160 101.5 160C100.672 160 100 159.328 100 158.5C100 157.672 100.672 157 101.5 157C102.328 157 103 157.672 103 158.5Z" fill="#D0D5DD"/>
<path d="M122 158.5C122 159.328 121.328 160 120.5 160C119.672 160 119 159.328 119 158.5C119 157.672 119.672 157 120.5 157C121.328 157 122 157.672 122 158.5Z" fill="#D0D5DD"/>
<path d="M141 158.5C141 159.328 140.328 160 139.5 160C138.672 160 138 159.328 138 158.5C138 157.672 138.672 157 139.5 157C140.328 157 141 157.672 141 158.5Z" fill="#D0D5DD"/>
<path d="M160 158.5C160 159.328 159.328 160 158.5 160C157.672 160 157 159.328 157 158.5C157 157.672 157.672 157 158.5 157C159.328 157 160 157.672 160 158.5Z" fill="#D0D5DD"/>
<path d="M179 158.5C179 159.328 178.328 160 177.5 160C176.672 160 176 159.328 176 158.5C176 157.672 176.672 157 177.5 157C178.328 157 179 157.672 179 158.5Z" fill="#D0D5DD"/>
<path d="M198 158.5C198 159.328 197.328 160 196.5 160C195.672 160 195 159.328 195 158.5C195 157.672 195.672 157 196.5 157C197.328 157 198 157.672 198 158.5Z" fill="#D0D5DD"/>
<path d="M217 158.5C217 159.328 216.328 160 215.5 160C214.672 160 214 159.328 214 158.5C214 157.672 214.672 157 215.5 157C216.328 157 217 157.672 217 158.5Z" fill="#D0D5DD"/>
<path d="M236 158.5C236 159.328 235.328 160 234.5 160C233.672 160 233 159.328 233 158.5C233 157.672 233.672 157 234.5 157C235.328 157 236 157.672 236 158.5Z" fill="#D0D5DD"/>
<path d="M255 158.5C255 159.328 254.328 160 253.5 160C252.672 160 252 159.328 252 158.5C252 157.672 252.672 157 253.5 157C254.328 157 255 157.672 255 158.5Z" fill="#D0D5DD"/>
<path d="M274 158.5C274 159.328 273.328 160 272.5 160C271.672 160 271 159.328 271 158.5C271 157.672 271.672 157 272.5 157C273.328 157 274 157.672 274 158.5Z" fill="#D0D5DD"/>
<path d="M293 158.5C293 159.328 292.328 160 291.5 160C290.672 160 290 159.328 290 158.5C290 157.672 290.672 157 291.5 157C292.328 157 293 157.672 293 158.5Z" fill="#D0D5DD"/>
<path d="M312 158.5C312 159.328 311.328 160 310.5 160C309.672 160 309 159.328 309 158.5C309 157.672 309.672 157 310.5 157C311.328 157 312 157.672 312 158.5Z" fill="#D0D5DD"/>
<path d="M331 158.5C331 159.328 330.328 160 329.5 160C328.672 160 328 159.328 328 158.5C328 157.672 328.672 157 329.5 157C330.328 157 331 157.672 331 158.5Z" fill="#D0D5DD"/>
<path d="M8 177.5C8 178.328 7.32843 179 6.5 179C5.67157 179 5 178.328 5 177.5C5 176.672 5.67157 176 6.5 176C7.32843 176 8 176.672 8 177.5Z" fill="#D0D5DD"/>
<path d="M27 177.5C27 178.328 26.3284 179 25.5 179C24.6716 179 24 178.328 24 177.5C24 176.672 24.6716 176 25.5 176C26.3284 176 27 176.672 27 177.5Z" fill="#D0D5DD"/>
<path d="M46 177.5C46 178.328 45.3284 179 44.5 179C43.6716 179 43 178.328 43 177.5C43 176.672 43.6716 176 44.5 176C45.3284 176 46 176.672 46 177.5Z" fill="#D0D5DD"/>
<path d="M65 177.5C65 178.328 64.3284 179 63.5 179C62.6716 179 62 178.328 62 177.5C62 176.672 62.6716 176 63.5 176C64.3284 176 65 176.672 65 177.5Z" fill="#D0D5DD"/>
<path d="M84 177.5C84 178.328 83.3284 179 82.5 179C81.6716 179 81 178.328 81 177.5C81 176.672 81.6716 176 82.5 176C83.3284 176 84 176.672 84 177.5Z" fill="#D0D5DD"/>
<path d="M103 177.5C103 178.328 102.328 179 101.5 179C100.672 179 100 178.328 100 177.5C100 176.672 100.672 176 101.5 176C102.328 176 103 176.672 103 177.5Z" fill="#D0D5DD"/>
<path d="M122 177.5C122 178.328 121.328 179 120.5 179C119.672 179 119 178.328 119 177.5C119 176.672 119.672 176 120.5 176C121.328 176 122 176.672 122 177.5Z" fill="#D0D5DD"/>
<path d="M141 177.5C141 178.328 140.328 179 139.5 179C138.672 179 138 178.328 138 177.5C138 176.672 138.672 176 139.5 176C140.328 176 141 176.672 141 177.5Z" fill="#D0D5DD"/>
<path d="M160 177.5C160 178.328 159.328 179 158.5 179C157.672 179 157 178.328 157 177.5C157 176.672 157.672 176 158.5 176C159.328 176 160 176.672 160 177.5Z" fill="#D0D5DD"/>
<path d="M179 177.5C179 178.328 178.328 179 177.5 179C176.672 179 176 178.328 176 177.5C176 176.672 176.672 176 177.5 176C178.328 176 179 176.672 179 177.5Z" fill="#D0D5DD"/>
<path d="M198 177.5C198 178.328 197.328 179 196.5 179C195.672 179 195 178.328 195 177.5C195 176.672 195.672 176 196.5 176C197.328 176 198 176.672 198 177.5Z" fill="#D0D5DD"/>
<path d="M217 177.5C217 178.328 216.328 179 215.5 179C214.672 179 214 178.328 214 177.5C214 176.672 214.672 176 215.5 176C216.328 176 217 176.672 217 177.5Z" fill="#D0D5DD"/>
<path d="M236 177.5C236 178.328 235.328 179 234.5 179C233.672 179 233 178.328 233 177.5C233 176.672 233.672 176 234.5 176C235.328 176 236 176.672 236 177.5Z" fill="#D0D5DD"/>
<path d="M255 177.5C255 178.328 254.328 179 253.5 179C252.672 179 252 178.328 252 177.5C252 176.672 252.672 176 253.5 176C254.328 176 255 176.672 255 177.5Z" fill="#D0D5DD"/>
<path d="M274 177.5C274 178.328 273.328 179 272.5 179C271.672 179 271 178.328 271 177.5C271 176.672 271.672 176 272.5 176C273.328 176 274 176.672 274 177.5Z" fill="#D0D5DD"/>
<path d="M293 177.5C293 178.328 292.328 179 291.5 179C290.672 179 290 178.328 290 177.5C290 176.672 290.672 176 291.5 176C292.328 176 293 176.672 293 177.5Z" fill="#D0D5DD"/>
<path d="M312 177.5C312 178.328 311.328 179 310.5 179C309.672 179 309 178.328 309 177.5C309 176.672 309.672 176 310.5 176C311.328 176 312 176.672 312 177.5Z" fill="#D0D5DD"/>
<path d="M331 177.5C331 178.328 330.328 179 329.5 179C328.672 179 328 178.328 328 177.5C328 176.672 328.672 176 329.5 176C330.328 176 331 176.672 331 177.5Z" fill="#D0D5DD"/>
<path d="M8 196.5C8 197.328 7.32843 198 6.5 198C5.67157 198 5 197.328 5 196.5C5 195.672 5.67157 195 6.5 195C7.32843 195 8 195.672 8 196.5Z" fill="#D0D5DD"/>
<path d="M27 196.5C27 197.328 26.3284 198 25.5 198C24.6716 198 24 197.328 24 196.5C24 195.672 24.6716 195 25.5 195C26.3284 195 27 195.672 27 196.5Z" fill="#D0D5DD"/>
<path d="M46 196.5C46 197.328 45.3284 198 44.5 198C43.6716 198 43 197.328 43 196.5C43 195.672 43.6716 195 44.5 195C45.3284 195 46 195.672 46 196.5Z" fill="#D0D5DD"/>
<path d="M65 196.5C65 197.328 64.3284 198 63.5 198C62.6716 198 62 197.328 62 196.5C62 195.672 62.6716 195 63.5 195C64.3284 195 65 195.672 65 196.5Z" fill="#D0D5DD"/>
<path d="M84 196.5C84 197.328 83.3284 198 82.5 198C81.6716 198 81 197.328 81 196.5C81 195.672 81.6716 195 82.5 195C83.3284 195 84 195.672 84 196.5Z" fill="#D0D5DD"/>
<path d="M103 196.5C103 197.328 102.328 198 101.5 198C100.672 198 100 197.328 100 196.5C100 195.672 100.672 195 101.5 195C102.328 195 103 195.672 103 196.5Z" fill="#D0D5DD"/>
<path d="M122 196.5C122 197.328 121.328 198 120.5 198C119.672 198 119 197.328 119 196.5C119 195.672 119.672 195 120.5 195C121.328 195 122 195.672 122 196.5Z" fill="#D0D5DD"/>
<path d="M141 196.5C141 197.328 140.328 198 139.5 198C138.672 198 138 197.328 138 196.5C138 195.672 138.672 195 139.5 195C140.328 195 141 195.672 141 196.5Z" fill="#D0D5DD"/>
<path d="M160 196.5C160 197.328 159.328 198 158.5 198C157.672 198 157 197.328 157 196.5C157 195.672 157.672 195 158.5 195C159.328 195 160 195.672 160 196.5Z" fill="#D0D5DD"/>
<path d="M179 196.5C179 197.328 178.328 198 177.5 198C176.672 198 176 197.328 176 196.5C176 195.672 176.672 195 177.5 195C178.328 195 179 195.672 179 196.5Z" fill="#D0D5DD"/>
<path d="M198 196.5C198 197.328 197.328 198 196.5 198C195.672 198 195 197.328 195 196.5C195 195.672 195.672 195 196.5 195C197.328 195 198 195.672 198 196.5Z" fill="#D0D5DD"/>
<path d="M217 196.5C217 197.328 216.328 198 215.5 198C214.672 198 214 197.328 214 196.5C214 195.672 214.672 195 215.5 195C216.328 195 217 195.672 217 196.5Z" fill="#D0D5DD"/>
<path d="M236 196.5C236 197.328 235.328 198 234.5 198C233.672 198 233 197.328 233 196.5C233 195.672 233.672 195 234.5 195C235.328 195 236 195.672 236 196.5Z" fill="#D0D5DD"/>
<path d="M255 196.5C255 197.328 254.328 198 253.5 198C252.672 198 252 197.328 252 196.5C252 195.672 252.672 195 253.5 195C254.328 195 255 195.672 255 196.5Z" fill="#D0D5DD"/>
<path d="M274 196.5C274 197.328 273.328 198 272.5 198C271.672 198 271 197.328 271 196.5C271 195.672 271.672 195 272.5 195C273.328 195 274 195.672 274 196.5Z" fill="#D0D5DD"/>
<path d="M293 196.5C293 197.328 292.328 198 291.5 198C290.672 198 290 197.328 290 196.5C290 195.672 290.672 195 291.5 195C292.328 195 293 195.672 293 196.5Z" fill="#D0D5DD"/>
<path d="M312 196.5C312 197.328 311.328 198 310.5 198C309.672 198 309 197.328 309 196.5C309 195.672 309.672 195 310.5 195C311.328 195 312 195.672 312 196.5Z" fill="#D0D5DD"/>
<path d="M331 196.5C331 197.328 330.328 198 329.5 198C328.672 198 328 197.328 328 196.5C328 195.672 328.672 195 329.5 195C330.328 195 331 195.672 331 196.5Z" fill="#D0D5DD"/>
<path d="M8 215.5C8 216.328 7.32843 217 6.5 217C5.67157 217 5 216.328 5 215.5C5 214.672 5.67157 214 6.5 214C7.32843 214 8 214.672 8 215.5Z" fill="#D0D5DD"/>
<path d="M27 215.5C27 216.328 26.3284 217 25.5 217C24.6716 217 24 216.328 24 215.5C24 214.672 24.6716 214 25.5 214C26.3284 214 27 214.672 27 215.5Z" fill="#D0D5DD"/>
<path d="M46 215.5C46 216.328 45.3284 217 44.5 217C43.6716 217 43 216.328 43 215.5C43 214.672 43.6716 214 44.5 214C45.3284 214 46 214.672 46 215.5Z" fill="#D0D5DD"/>
<path d="M65 215.5C65 216.328 64.3284 217 63.5 217C62.6716 217 62 216.328 62 215.5C62 214.672 62.6716 214 63.5 214C64.3284 214 65 214.672 65 215.5Z" fill="#D0D5DD"/>
<path d="M84 215.5C84 216.328 83.3284 217 82.5 217C81.6716 217 81 216.328 81 215.5C81 214.672 81.6716 214 82.5 214C83.3284 214 84 214.672 84 215.5Z" fill="#D0D5DD"/>
<path d="M103 215.5C103 216.328 102.328 217 101.5 217C100.672 217 100 216.328 100 215.5C100 214.672 100.672 214 101.5 214C102.328 214 103 214.672 103 215.5Z" fill="#D0D5DD"/>
<path d="M122 215.5C122 216.328 121.328 217 120.5 217C119.672 217 119 216.328 119 215.5C119 214.672 119.672 214 120.5 214C121.328 214 122 214.672 122 215.5Z" fill="#D0D5DD"/>
<path d="M141 215.5C141 216.328 140.328 217 139.5 217C138.672 217 138 216.328 138 215.5C138 214.672 138.672 214 139.5 214C140.328 214 141 214.672 141 215.5Z" fill="#D0D5DD"/>
<path d="M160 215.5C160 216.328 159.328 217 158.5 217C157.672 217 157 216.328 157 215.5C157 214.672 157.672 214 158.5 214C159.328 214 160 214.672 160 215.5Z" fill="#D0D5DD"/>
<path d="M179 215.5C179 216.328 178.328 217 177.5 217C176.672 217 176 216.328 176 215.5C176 214.672 176.672 214 177.5 214C178.328 214 179 214.672 179 215.5Z" fill="#D0D5DD"/>
<path d="M198 215.5C198 216.328 197.328 217 196.5 217C195.672 217 195 216.328 195 215.5C195 214.672 195.672 214 196.5 214C197.328 214 198 214.672 198 215.5Z" fill="#D0D5DD"/>
<path d="M217 215.5C217 216.328 216.328 217 215.5 217C214.672 217 214 216.328 214 215.5C214 214.672 214.672 214 215.5 214C216.328 214 217 214.672 217 215.5Z" fill="#D0D5DD"/>
<path d="M236 215.5C236 216.328 235.328 217 234.5 217C233.672 217 233 216.328 233 215.5C233 214.672 233.672 214 234.5 214C235.328 214 236 214.672 236 215.5Z" fill="#D0D5DD"/>
<path d="M255 215.5C255 216.328 254.328 217 253.5 217C252.672 217 252 216.328 252 215.5C252 214.672 252.672 214 253.5 214C254.328 214 255 214.672 255 215.5Z" fill="#D0D5DD"/>
<path d="M274 215.5C274 216.328 273.328 217 272.5 217C271.672 217 271 216.328 271 215.5C271 214.672 271.672 214 272.5 214C273.328 214 274 214.672 274 215.5Z" fill="#D0D5DD"/>
<path d="M293 215.5C293 216.328 292.328 217 291.5 217C290.672 217 290 216.328 290 215.5C290 214.672 290.672 214 291.5 214C292.328 214 293 214.672 293 215.5Z" fill="#D0D5DD"/>
<path d="M312 215.5C312 216.328 311.328 217 310.5 217C309.672 217 309 216.328 309 215.5C309 214.672 309.672 214 310.5 214C311.328 214 312 214.672 312 215.5Z" fill="#D0D5DD"/>
<path d="M331 215.5C331 216.328 330.328 217 329.5 217C328.672 217 328 216.328 328 215.5C328 214.672 328.672 214 329.5 214C330.328 214 331 214.672 331 215.5Z" fill="#D0D5DD"/>
<path d="M8 234.5C8 235.328 7.32843 236 6.5 236C5.67157 236 5 235.328 5 234.5C5 233.672 5.67157 233 6.5 233C7.32843 233 8 233.672 8 234.5Z" fill="#D0D5DD"/>
<path d="M27 234.5C27 235.328 26.3284 236 25.5 236C24.6716 236 24 235.328 24 234.5C24 233.672 24.6716 233 25.5 233C26.3284 233 27 233.672 27 234.5Z" fill="#D0D5DD"/>
<path d="M46 234.5C46 235.328 45.3284 236 44.5 236C43.6716 236 43 235.328 43 234.5C43 233.672 43.6716 233 44.5 233C45.3284 233 46 233.672 46 234.5Z" fill="#D0D5DD"/>
<path d="M65 234.5C65 235.328 64.3284 236 63.5 236C62.6716 236 62 235.328 62 234.5C62 233.672 62.6716 233 63.5 233C64.3284 233 65 233.672 65 234.5Z" fill="#D0D5DD"/>
<path d="M84 234.5C84 235.328 83.3284 236 82.5 236C81.6716 236 81 235.328 81 234.5C81 233.672 81.6716 233 82.5 233C83.3284 233 84 233.672 84 234.5Z" fill="#D0D5DD"/>
<path d="M103 234.5C103 235.328 102.328 236 101.5 236C100.672 236 100 235.328 100 234.5C100 233.672 100.672 233 101.5 233C102.328 233 103 233.672 103 234.5Z" fill="#D0D5DD"/>
<path d="M122 234.5C122 235.328 121.328 236 120.5 236C119.672 236 119 235.328 119 234.5C119 233.672 119.672 233 120.5 233C121.328 233 122 233.672 122 234.5Z" fill="#D0D5DD"/>
<path d="M141 234.5C141 235.328 140.328 236 139.5 236C138.672 236 138 235.328 138 234.5C138 233.672 138.672 233 139.5 233C140.328 233 141 233.672 141 234.5Z" fill="#D0D5DD"/>
<path d="M160 234.5C160 235.328 159.328 236 158.5 236C157.672 236 157 235.328 157 234.5C157 233.672 157.672 233 158.5 233C159.328 233 160 233.672 160 234.5Z" fill="#D0D5DD"/>
<path d="M179 234.5C179 235.328 178.328 236 177.5 236C176.672 236 176 235.328 176 234.5C176 233.672 176.672 233 177.5 233C178.328 233 179 233.672 179 234.5Z" fill="#D0D5DD"/>
<path d="M198 234.5C198 235.328 197.328 236 196.5 236C195.672 236 195 235.328 195 234.5C195 233.672 195.672 233 196.5 233C197.328 233 198 233.672 198 234.5Z" fill="#D0D5DD"/>
<path d="M217 234.5C217 235.328 216.328 236 215.5 236C214.672 236 214 235.328 214 234.5C214 233.672 214.672 233 215.5 233C216.328 233 217 233.672 217 234.5Z" fill="#D0D5DD"/>
<path d="M236 234.5C236 235.328 235.328 236 234.5 236C233.672 236 233 235.328 233 234.5C233 233.672 233.672 233 234.5 233C235.328 233 236 233.672 236 234.5Z" fill="#D0D5DD"/>
<path d="M255 234.5C255 235.328 254.328 236 253.5 236C252.672 236 252 235.328 252 234.5C252 233.672 252.672 233 253.5 233C254.328 233 255 233.672 255 234.5Z" fill="#D0D5DD"/>
<path d="M274 234.5C274 235.328 273.328 236 272.5 236C271.672 236 271 235.328 271 234.5C271 233.672 271.672 233 272.5 233C273.328 233 274 233.672 274 234.5Z" fill="#D0D5DD"/>
<path d="M293 234.5C293 235.328 292.328 236 291.5 236C290.672 236 290 235.328 290 234.5C290 233.672 290.672 233 291.5 233C292.328 233 293 233.672 293 234.5Z" fill="#D0D5DD"/>
<path d="M312 234.5C312 235.328 311.328 236 310.5 236C309.672 236 309 235.328 309 234.5C309 233.672 309.672 233 310.5 233C311.328 233 312 233.672 312 234.5Z" fill="#D0D5DD"/>
<path d="M331 234.5C331 235.328 330.328 236 329.5 236C328.672 236 328 235.328 328 234.5C328 233.672 328.672 233 329.5 233C330.328 233 331 233.672 331 234.5Z" fill="#D0D5DD"/>
<path d="M8 253.5C8 254.328 7.32843 255 6.5 255C5.67157 255 5 254.328 5 253.5C5 252.672 5.67157 252 6.5 252C7.32843 252 8 252.672 8 253.5Z" fill="#D0D5DD"/>
<path d="M27 253.5C27 254.328 26.3284 255 25.5 255C24.6716 255 24 254.328 24 253.5C24 252.672 24.6716 252 25.5 252C26.3284 252 27 252.672 27 253.5Z" fill="#D0D5DD"/>
<path d="M46 253.5C46 254.328 45.3284 255 44.5 255C43.6716 255 43 254.328 43 253.5C43 252.672 43.6716 252 44.5 252C45.3284 252 46 252.672 46 253.5Z" fill="#D0D5DD"/>
<path d="M65 253.5C65 254.328 64.3284 255 63.5 255C62.6716 255 62 254.328 62 253.5C62 252.672 62.6716 252 63.5 252C64.3284 252 65 252.672 65 253.5Z" fill="#D0D5DD"/>
<path d="M84 253.5C84 254.328 83.3284 255 82.5 255C81.6716 255 81 254.328 81 253.5C81 252.672 81.6716 252 82.5 252C83.3284 252 84 252.672 84 253.5Z" fill="#D0D5DD"/>
<path d="M103 253.5C103 254.328 102.328 255 101.5 255C100.672 255 100 254.328 100 253.5C100 252.672 100.672 252 101.5 252C102.328 252 103 252.672 103 253.5Z" fill="#D0D5DD"/>
<path d="M122 253.5C122 254.328 121.328 255 120.5 255C119.672 255 119 254.328 119 253.5C119 252.672 119.672 252 120.5 252C121.328 252 122 252.672 122 253.5Z" fill="#D0D5DD"/>
<path d="M141 253.5C141 254.328 140.328 255 139.5 255C138.672 255 138 254.328 138 253.5C138 252.672 138.672 252 139.5 252C140.328 252 141 252.672 141 253.5Z" fill="#D0D5DD"/>
<path d="M160 253.5C160 254.328 159.328 255 158.5 255C157.672 255 157 254.328 157 253.5C157 252.672 157.672 252 158.5 252C159.328 252 160 252.672 160 253.5Z" fill="#D0D5DD"/>
<path d="M179 253.5C179 254.328 178.328 255 177.5 255C176.672 255 176 254.328 176 253.5C176 252.672 176.672 252 177.5 252C178.328 252 179 252.672 179 253.5Z" fill="#D0D5DD"/>
<path d="M198 253.5C198 254.328 197.328 255 196.5 255C195.672 255 195 254.328 195 253.5C195 252.672 195.672 252 196.5 252C197.328 252 198 252.672 198 253.5Z" fill="#D0D5DD"/>
<path d="M217 253.5C217 254.328 216.328 255 215.5 255C214.672 255 214 254.328 214 253.5C214 252.672 214.672 252 215.5 252C216.328 252 217 252.672 217 253.5Z" fill="#D0D5DD"/>
<path d="M236 253.5C236 254.328 235.328 255 234.5 255C233.672 255 233 254.328 233 253.5C233 252.672 233.672 252 234.5 252C235.328 252 236 252.672 236 253.5Z" fill="#D0D5DD"/>
<path d="M255 253.5C255 254.328 254.328 255 253.5 255C252.672 255 252 254.328 252 253.5C252 252.672 252.672 252 253.5 252C254.328 252 255 252.672 255 253.5Z" fill="#D0D5DD"/>
<path d="M274 253.5C274 254.328 273.328 255 272.5 255C271.672 255 271 254.328 271 253.5C271 252.672 271.672 252 272.5 252C273.328 252 274 252.672 274 253.5Z" fill="#D0D5DD"/>
<path d="M293 253.5C293 254.328 292.328 255 291.5 255C290.672 255 290 254.328 290 253.5C290 252.672 290.672 252 291.5 252C292.328 252 293 252.672 293 253.5Z" fill="#D0D5DD"/>
<path d="M312 253.5C312 254.328 311.328 255 310.5 255C309.672 255 309 254.328 309 253.5C309 252.672 309.672 252 310.5 252C311.328 252 312 252.672 312 253.5Z" fill="#D0D5DD"/>
<path d="M331 253.5C331 254.328 330.328 255 329.5 255C328.672 255 328 254.328 328 253.5C328 252.672 328.672 252 329.5 252C330.328 252 331 252.672 331 253.5Z" fill="#D0D5DD"/>
<path d="M8 272.5C8 273.328 7.32843 274 6.5 274C5.67157 274 5 273.328 5 272.5C5 271.672 5.67157 271 6.5 271C7.32843 271 8 271.672 8 272.5Z" fill="#D0D5DD"/>
<path d="M27 272.5C27 273.328 26.3284 274 25.5 274C24.6716 274 24 273.328 24 272.5C24 271.672 24.6716 271 25.5 271C26.3284 271 27 271.672 27 272.5Z" fill="#D0D5DD"/>
<path d="M46 272.5C46 273.328 45.3284 274 44.5 274C43.6716 274 43 273.328 43 272.5C43 271.672 43.6716 271 44.5 271C45.3284 271 46 271.672 46 272.5Z" fill="#D0D5DD"/>
<path d="M65 272.5C65 273.328 64.3284 274 63.5 274C62.6716 274 62 273.328 62 272.5C62 271.672 62.6716 271 63.5 271C64.3284 271 65 271.672 65 272.5Z" fill="#D0D5DD"/>
<path d="M84 272.5C84 273.328 83.3284 274 82.5 274C81.6716 274 81 273.328 81 272.5C81 271.672 81.6716 271 82.5 271C83.3284 271 84 271.672 84 272.5Z" fill="#D0D5DD"/>
<path d="M103 272.5C103 273.328 102.328 274 101.5 274C100.672 274 100 273.328 100 272.5C100 271.672 100.672 271 101.5 271C102.328 271 103 271.672 103 272.5Z" fill="#D0D5DD"/>
<path d="M122 272.5C122 273.328 121.328 274 120.5 274C119.672 274 119 273.328 119 272.5C119 271.672 119.672 271 120.5 271C121.328 271 122 271.672 122 272.5Z" fill="#D0D5DD"/>
<path d="M141 272.5C141 273.328 140.328 274 139.5 274C138.672 274 138 273.328 138 272.5C138 271.672 138.672 271 139.5 271C140.328 271 141 271.672 141 272.5Z" fill="#D0D5DD"/>
<path d="M160 272.5C160 273.328 159.328 274 158.5 274C157.672 274 157 273.328 157 272.5C157 271.672 157.672 271 158.5 271C159.328 271 160 271.672 160 272.5Z" fill="#D0D5DD"/>
<path d="M179 272.5C179 273.328 178.328 274 177.5 274C176.672 274 176 273.328 176 272.5C176 271.672 176.672 271 177.5 271C178.328 271 179 271.672 179 272.5Z" fill="#D0D5DD"/>
<path d="M198 272.5C198 273.328 197.328 274 196.5 274C195.672 274 195 273.328 195 272.5C195 271.672 195.672 271 196.5 271C197.328 271 198 271.672 198 272.5Z" fill="#D0D5DD"/>
<path d="M217 272.5C217 273.328 216.328 274 215.5 274C214.672 274 214 273.328 214 272.5C214 271.672 214.672 271 215.5 271C216.328 271 217 271.672 217 272.5Z" fill="#D0D5DD"/>
<path d="M236 272.5C236 273.328 235.328 274 234.5 274C233.672 274 233 273.328 233 272.5C233 271.672 233.672 271 234.5 271C235.328 271 236 271.672 236 272.5Z" fill="#D0D5DD"/>
<path d="M255 272.5C255 273.328 254.328 274 253.5 274C252.672 274 252 273.328 252 272.5C252 271.672 252.672 271 253.5 271C254.328 271 255 271.672 255 272.5Z" fill="#D0D5DD"/>
<path d="M274 272.5C274 273.328 273.328 274 272.5 274C271.672 274 271 273.328 271 272.5C271 271.672 271.672 271 272.5 271C273.328 271 274 271.672 274 272.5Z" fill="#D0D5DD"/>
<path d="M293 272.5C293 273.328 292.328 274 291.5 274C290.672 274 290 273.328 290 272.5C290 271.672 290.672 271 291.5 271C292.328 271 293 271.672 293 272.5Z" fill="#D0D5DD"/>
<path d="M312 272.5C312 273.328 311.328 274 310.5 274C309.672 274 309 273.328 309 272.5C309 271.672 309.672 271 310.5 271C311.328 271 312 271.672 312 272.5Z" fill="#D0D5DD"/>
<path d="M331 272.5C331 273.328 330.328 274 329.5 274C328.672 274 328 273.328 328 272.5C328 271.672 328.672 271 329.5 271C330.328 271 331 271.672 331 272.5Z" fill="#D0D5DD"/>
<path d="M8 291.5C8 292.328 7.32843 293 6.5 293C5.67157 293 5 292.328 5 291.5C5 290.672 5.67157 290 6.5 290C7.32843 290 8 290.672 8 291.5Z" fill="#D0D5DD"/>
<path d="M27 291.5C27 292.328 26.3284 293 25.5 293C24.6716 293 24 292.328 24 291.5C24 290.672 24.6716 290 25.5 290C26.3284 290 27 290.672 27 291.5Z" fill="#D0D5DD"/>
<path d="M46 291.5C46 292.328 45.3284 293 44.5 293C43.6716 293 43 292.328 43 291.5C43 290.672 43.6716 290 44.5 290C45.3284 290 46 290.672 46 291.5Z" fill="#D0D5DD"/>
<path d="M65 291.5C65 292.328 64.3284 293 63.5 293C62.6716 293 62 292.328 62 291.5C62 290.672 62.6716 290 63.5 290C64.3284 290 65 290.672 65 291.5Z" fill="#D0D5DD"/>
<path d="M84 291.5C84 292.328 83.3284 293 82.5 293C81.6716 293 81 292.328 81 291.5C81 290.672 81.6716 290 82.5 290C83.3284 290 84 290.672 84 291.5Z" fill="#D0D5DD"/>
<path d="M103 291.5C103 292.328 102.328 293 101.5 293C100.672 293 100 292.328 100 291.5C100 290.672 100.672 290 101.5 290C102.328 290 103 290.672 103 291.5Z" fill="#D0D5DD"/>
<path d="M122 291.5C122 292.328 121.328 293 120.5 293C119.672 293 119 292.328 119 291.5C119 290.672 119.672 290 120.5 290C121.328 290 122 290.672 122 291.5Z" fill="#D0D5DD"/>
<path d="M141 291.5C141 292.328 140.328 293 139.5 293C138.672 293 138 292.328 138 291.5C138 290.672 138.672 290 139.5 290C140.328 290 141 290.672 141 291.5Z" fill="#D0D5DD"/>
<path d="M160 291.5C160 292.328 159.328 293 158.5 293C157.672 293 157 292.328 157 291.5C157 290.672 157.672 290 158.5 290C159.328 290 160 290.672 160 291.5Z" fill="#D0D5DD"/>
<path d="M179 291.5C179 292.328 178.328 293 177.5 293C176.672 293 176 292.328 176 291.5C176 290.672 176.672 290 177.5 290C178.328 290 179 290.672 179 291.5Z" fill="#D0D5DD"/>
<path d="M198 291.5C198 292.328 197.328 293 196.5 293C195.672 293 195 292.328 195 291.5C195 290.672 195.672 290 196.5 290C197.328 290 198 290.672 198 291.5Z" fill="#D0D5DD"/>
<path d="M217 291.5C217 292.328 216.328 293 215.5 293C214.672 293 214 292.328 214 291.5C214 290.672 214.672 290 215.5 290C216.328 290 217 290.672 217 291.5Z" fill="#D0D5DD"/>
<path d="M236 291.5C236 292.328 235.328 293 234.5 293C233.672 293 233 292.328 233 291.5C233 290.672 233.672 290 234.5 290C235.328 290 236 290.672 236 291.5Z" fill="#D0D5DD"/>
<path d="M255 291.5C255 292.328 254.328 293 253.5 293C252.672 293 252 292.328 252 291.5C252 290.672 252.672 290 253.5 290C254.328 290 255 290.672 255 291.5Z" fill="#D0D5DD"/>
<path d="M274 291.5C274 292.328 273.328 293 272.5 293C271.672 293 271 292.328 271 291.5C271 290.672 271.672 290 272.5 290C273.328 290 274 290.672 274 291.5Z" fill="#D0D5DD"/>
<path d="M293 291.5C293 292.328 292.328 293 291.5 293C290.672 293 290 292.328 290 291.5C290 290.672 290.672 290 291.5 290C292.328 290 293 290.672 293 291.5Z" fill="#D0D5DD"/>
<path d="M312 291.5C312 292.328 311.328 293 310.5 293C309.672 293 309 292.328 309 291.5C309 290.672 309.672 290 310.5 290C311.328 290 312 290.672 312 291.5Z" fill="#D0D5DD"/>
<path d="M331 291.5C331 292.328 330.328 293 329.5 293C328.672 293 328 292.328 328 291.5C328 290.672 328.672 290 329.5 290C330.328 290 331 290.672 331 291.5Z" fill="#D0D5DD"/>
<path d="M8 310.5C8 311.328 7.32843 312 6.5 312C5.67157 312 5 311.328 5 310.5C5 309.672 5.67157 309 6.5 309C7.32843 309 8 309.672 8 310.5Z" fill="#D0D5DD"/>
<path d="M27 310.5C27 311.328 26.3284 312 25.5 312C24.6716 312 24 311.328 24 310.5C24 309.672 24.6716 309 25.5 309C26.3284 309 27 309.672 27 310.5Z" fill="#D0D5DD"/>
<path d="M46 310.5C46 311.328 45.3284 312 44.5 312C43.6716 312 43 311.328 43 310.5C43 309.672 43.6716 309 44.5 309C45.3284 309 46 309.672 46 310.5Z" fill="#D0D5DD"/>
<path d="M65 310.5C65 311.328 64.3284 312 63.5 312C62.6716 312 62 311.328 62 310.5C62 309.672 62.6716 309 63.5 309C64.3284 309 65 309.672 65 310.5Z" fill="#D0D5DD"/>
<path d="M84 310.5C84 311.328 83.3284 312 82.5 312C81.6716 312 81 311.328 81 310.5C81 309.672 81.6716 309 82.5 309C83.3284 309 84 309.672 84 310.5Z" fill="#D0D5DD"/>
<path d="M103 310.5C103 311.328 102.328 312 101.5 312C100.672 312 100 311.328 100 310.5C100 309.672 100.672 309 101.5 309C102.328 309 103 309.672 103 310.5Z" fill="#D0D5DD"/>
<path d="M122 310.5C122 311.328 121.328 312 120.5 312C119.672 312 119 311.328 119 310.5C119 309.672 119.672 309 120.5 309C121.328 309 122 309.672 122 310.5Z" fill="#D0D5DD"/>
<path d="M141 310.5C141 311.328 140.328 312 139.5 312C138.672 312 138 311.328 138 310.5C138 309.672 138.672 309 139.5 309C140.328 309 141 309.672 141 310.5Z" fill="#D0D5DD"/>
<path d="M160 310.5C160 311.328 159.328 312 158.5 312C157.672 312 157 311.328 157 310.5C157 309.672 157.672 309 158.5 309C159.328 309 160 309.672 160 310.5Z" fill="#D0D5DD"/>
<path d="M179 310.5C179 311.328 178.328 312 177.5 312C176.672 312 176 311.328 176 310.5C176 309.672 176.672 309 177.5 309C178.328 309 179 309.672 179 310.5Z" fill="#D0D5DD"/>
<path d="M198 310.5C198 311.328 197.328 312 196.5 312C195.672 312 195 311.328 195 310.5C195 309.672 195.672 309 196.5 309C197.328 309 198 309.672 198 310.5Z" fill="#D0D5DD"/>
<path d="M217 310.5C217 311.328 216.328 312 215.5 312C214.672 312 214 311.328 214 310.5C214 309.672 214.672 309 215.5 309C216.328 309 217 309.672 217 310.5Z" fill="#D0D5DD"/>
<path d="M236 310.5C236 311.328 235.328 312 234.5 312C233.672 312 233 311.328 233 310.5C233 309.672 233.672 309 234.5 309C235.328 309 236 309.672 236 310.5Z" fill="#D0D5DD"/>
<path d="M255 310.5C255 311.328 254.328 312 253.5 312C252.672 312 252 311.328 252 310.5C252 309.672 252.672 309 253.5 309C254.328 309 255 309.672 255 310.5Z" fill="#D0D5DD"/>
<path d="M274 310.5C274 311.328 273.328 312 272.5 312C271.672 312 271 311.328 271 310.5C271 309.672 271.672 309 272.5 309C273.328 309 274 309.672 274 310.5Z" fill="#D0D5DD"/>
<path d="M293 310.5C293 311.328 292.328 312 291.5 312C290.672 312 290 311.328 290 310.5C290 309.672 290.672 309 291.5 309C292.328 309 293 309.672 293 310.5Z" fill="#D0D5DD"/>
<path d="M312 310.5C312 311.328 311.328 312 310.5 312C309.672 312 309 311.328 309 310.5C309 309.672 309.672 309 310.5 309C311.328 309 312 309.672 312 310.5Z" fill="#D0D5DD"/>
<path d="M331 310.5C331 311.328 330.328 312 329.5 312C328.672 312 328 311.328 328 310.5C328 309.672 328.672 309 329.5 309C330.328 309 331 309.672 331 310.5Z" fill="#D0D5DD"/>
<path d="M8 329.5C8 330.328 7.32843 331 6.5 331C5.67157 331 5 330.328 5 329.5C5 328.672 5.67157 328 6.5 328C7.32843 328 8 328.672 8 329.5Z" fill="#D0D5DD"/>
<path d="M27 329.5C27 330.328 26.3284 331 25.5 331C24.6716 331 24 330.328 24 329.5C24 328.672 24.6716 328 25.5 328C26.3284 328 27 328.672 27 329.5Z" fill="#D0D5DD"/>
<path d="M46 329.5C46 330.328 45.3284 331 44.5 331C43.6716 331 43 330.328 43 329.5C43 328.672 43.6716 328 44.5 328C45.3284 328 46 328.672 46 329.5Z" fill="#D0D5DD"/>
<path d="M65 329.5C65 330.328 64.3284 331 63.5 331C62.6716 331 62 330.328 62 329.5C62 328.672 62.6716 328 63.5 328C64.3284 328 65 328.672 65 329.5Z" fill="#D0D5DD"/>
<path d="M84 329.5C84 330.328 83.3284 331 82.5 331C81.6716 331 81 330.328 81 329.5C81 328.672 81.6716 328 82.5 328C83.3284 328 84 328.672 84 329.5Z" fill="#D0D5DD"/>
<path d="M103 329.5C103 330.328 102.328 331 101.5 331C100.672 331 100 330.328 100 329.5C100 328.672 100.672 328 101.5 328C102.328 328 103 328.672 103 329.5Z" fill="#D0D5DD"/>
<path d="M122 329.5C122 330.328 121.328 331 120.5 331C119.672 331 119 330.328 119 329.5C119 328.672 119.672 328 120.5 328C121.328 328 122 328.672 122 329.5Z" fill="#D0D5DD"/>
<path d="M141 329.5C141 330.328 140.328 331 139.5 331C138.672 331 138 330.328 138 329.5C138 328.672 138.672 328 139.5 328C140.328 328 141 328.672 141 329.5Z" fill="#D0D5DD"/>
<path d="M160 329.5C160 330.328 159.328 331 158.5 331C157.672 331 157 330.328 157 329.5C157 328.672 157.672 328 158.5 328C159.328 328 160 328.672 160 329.5Z" fill="#D0D5DD"/>
<path d="M179 329.5C179 330.328 178.328 331 177.5 331C176.672 331 176 330.328 176 329.5C176 328.672 176.672 328 177.5 328C178.328 328 179 328.672 179 329.5Z" fill="#D0D5DD"/>
<path d="M198 329.5C198 330.328 197.328 331 196.5 331C195.672 331 195 330.328 195 329.5C195 328.672 195.672 328 196.5 328C197.328 328 198 328.672 198 329.5Z" fill="#D0D5DD"/>
<path d="M217 329.5C217 330.328 216.328 331 215.5 331C214.672 331 214 330.328 214 329.5C214 328.672 214.672 328 215.5 328C216.328 328 217 328.672 217 329.5Z" fill="#D0D5DD"/>
<path d="M236 329.5C236 330.328 235.328 331 234.5 331C233.672 331 233 330.328 233 329.5C233 328.672 233.672 328 234.5 328C235.328 328 236 328.672 236 329.5Z" fill="#D0D5DD"/>
<path d="M255 329.5C255 330.328 254.328 331 253.5 331C252.672 331 252 330.328 252 329.5C252 328.672 252.672 328 253.5 328C254.328 328 255 328.672 255 329.5Z" fill="#D0D5DD"/>
<path d="M274 329.5C274 330.328 273.328 331 272.5 331C271.672 331 271 330.328 271 329.5C271 328.672 271.672 328 272.5 328C273.328 328 274 328.672 274 329.5Z" fill="#D0D5DD"/>
<path d="M293 329.5C293 330.328 292.328 331 291.5 331C290.672 331 290 330.328 290 329.5C290 328.672 290.672 328 291.5 328C292.328 328 293 328.672 293 329.5Z" fill="#D0D5DD"/>
<path d="M312 329.5C312 330.328 311.328 331 310.5 331C309.672 331 309 330.328 309 329.5C309 328.672 309.672 328 310.5 328C311.328 328 312 328.672 312 329.5Z" fill="#D0D5DD"/>
<path d="M331 329.5C331 330.328 330.328 331 329.5 331C328.672 331 328 330.328 328 329.5C328 328.672 328.672 328 329.5 328C330.328 328 331 328.672 331 329.5Z" fill="#D0D5DD"/>
</g>
<defs>
<radialGradient id="paint0_radial_4947_375932" cx="0" cy="0" r="1" gradientUnits="userSpaceOnUse" gradientTransform="translate(168 168) rotate(90) scale(168 168)">
<stop/>
<stop offset="1" stop-opacity="0"/>
</radialGradient>
</defs>
</svg>
